<svg width="180" height="166" viewBox="0 0 180 166" fill="none" xmlns="http://www.w3.org/2000/svg">
<g filter="url(#filter0_d_1571_4191)">
<path d="M20 0H160V126C160 134.837 152.837 142 144 142H36C27.1634 142 20 134.837 20 126V0Z" fill="#00B1E1"/>
<ellipse cx="48.4076" cy="46.0885" rx="12.5817" ry="12.5817" fill="#46D3CC"/>
<circle cx="38.5618" cy="34.0518" r="10.3936" fill="#2768D8"/>
<circle cx="49.5027" cy="24.2055" r="8.20546" fill="#152C89"/>
<path d="M48.4966 47.6684C47.2362 47.6684 46.1543 47.4373 45.2509 46.9752C44.3476 46.5025 43.6543 45.825 43.1712 44.9427C42.6985 44.0603 42.4622 42.9994 42.4622 41.76C42.4622 40.5205 42.6985 39.4596 43.1712 38.5773C43.6543 37.695 44.3476 37.0227 45.2509 36.5606C46.1543 36.0879 47.2362 35.8516 48.4966 35.8516C49.9357 35.8516 51.2119 36.1614 52.3253 36.7812L51.8211 38.7034C50.7392 38.0941 49.6626 37.7895 48.5912 37.7895C47.7929 37.7895 47.1049 37.9471 46.5272 38.2622C45.9494 38.5773 45.5083 39.0342 45.2037 39.633C44.8991 40.2212 44.7467 40.9302 44.7467 41.76C44.7467 42.5793 44.8991 43.2883 45.2037 43.887C45.5083 44.4857 45.9494 44.9427 46.5272 45.2578C47.1049 45.5729 47.7929 45.7304 48.5912 45.7304C49.6415 45.7304 50.7182 45.4258 51.8211 44.8166L52.3253 46.7388C51.2119 47.3585 49.9357 47.6684 48.4966 47.6684Z" fill="white"/>
<path d="M59.2559 47.6684C58.048 47.6684 56.9976 47.4321 56.1047 46.9594C55.2119 46.4762 54.5239 45.7935 54.0407 44.9111C53.5681 44.0183 53.3317 42.9679 53.3317 41.76C53.3317 40.5415 53.5681 39.4912 54.0407 38.6088C54.5239 37.7265 55.2119 37.049 56.1047 36.5763C56.9976 36.0932 58.048 35.8516 59.2559 35.8516C60.4848 35.8516 61.5405 36.0932 62.4228 36.5763C63.3156 37.049 63.9984 37.7265 64.4711 38.6088C64.9542 39.4912 65.1958 40.5415 65.1958 41.76C65.1958 42.9679 64.9542 44.0183 64.4711 44.9111C63.9984 45.7935 63.3156 46.4762 62.4228 46.9594C61.5405 47.4321 60.4848 47.6684 59.2559 47.6684ZM59.2559 45.7304C60.0332 45.7304 60.6949 45.5729 61.2411 45.2578C61.7873 44.9427 62.2022 44.491 62.4858 43.9028C62.7799 43.3041 62.927 42.5898 62.927 41.76C62.927 40.9302 62.7799 40.2212 62.4858 39.633C62.2022 39.0342 61.7873 38.5773 61.2411 38.2622C60.6949 37.9471 60.0332 37.7895 59.2559 37.7895C58.4891 37.7895 57.8274 37.9471 57.2707 38.2622C56.7245 38.5773 56.3043 39.0342 56.0102 39.633C55.7266 40.2212 55.5848 40.9302 55.5848 41.76C55.5848 42.5898 55.7266 43.3041 56.0102 43.9028C56.3043 44.491 56.7245 44.9427 57.2707 45.2578C57.8274 45.5729 58.4891 45.7304 59.2559 45.7304Z" fill="white"/>
<path d="M69.2843 47.5108V37.9471H65.5974V36.0091H75.2557V37.9471H71.5688V47.5108H69.2843Z" fill="white"/>
<path d="M81.5797 47.6684C80.3718 47.6684 79.3214 47.4321 78.4286 46.9594C77.5357 46.4762 76.8477 45.7935 76.3645 44.9111C75.8919 44.0183 75.6555 42.9679 75.6555 41.76C75.6555 40.5415 75.8919 39.4912 76.3645 38.6088C76.8477 37.7265 77.5357 37.049 78.4286 36.5763C79.3214 36.0932 80.3718 35.8516 81.5797 35.8516C82.8087 35.8516 83.8643 36.0932 84.7466 36.5763C85.6395 37.049 86.3222 37.7265 86.7949 38.6088C87.2781 39.4912 87.5196 40.5415 87.5196 41.76C87.5196 42.9679 87.2781 44.0183 86.7949 44.9111C86.3222 45.7935 85.6395 46.4762 84.7466 46.9594C83.8643 47.4321 82.8087 47.6684 81.5797 47.6684ZM81.5797 45.7304C82.357 45.7304 83.0187 45.5729 83.5649 45.2578C84.1111 44.9427 84.526 44.491 84.8096 43.9028C85.1037 43.3041 85.2508 42.5898 85.2508 41.76C85.2508 40.9302 85.1037 40.2212 84.8096 39.633C84.526 39.0342 84.1111 38.5773 83.5649 38.2622C83.0187 37.9471 82.357 37.7895 81.5797 37.7895C80.8129 37.7895 80.1512 37.9471 79.5945 38.2622C79.0483 38.5773 78.6281 39.0342 78.334 39.633C78.0504 40.2212 77.9086 40.9302 77.9086 41.76C77.9086 42.5898 78.0504 43.3041 78.334 43.9028C78.6281 44.491 79.0483 44.9427 79.5945 45.2578C80.1512 45.5729 80.8129 45.7304 81.5797 45.7304Z" fill="white"/>
<path d="M89.5395 47.5108V36.0091H91.7453V40.988H91.7768L96.472 36.0091H99.1505L93.9826 41.5236L99.3081 47.5108H96.6296L91.7768 42.0593H91.7453V47.5108H89.5395Z" fill="white"/>
<path d="M105.196 47.6684C103.988 47.6684 102.938 47.4321 102.045 46.9594C101.152 46.4762 100.464 45.7935 99.9808 44.9111C99.5081 44.0183 99.2718 42.9679 99.2718 41.76C99.2718 40.5415 99.5081 39.4912 99.9808 38.6088C100.464 37.7265 101.152 37.049 102.045 36.5763C102.938 36.0932 103.988 35.8516 105.196 35.8516C106.425 35.8516 107.481 36.0932 108.363 36.5763C109.256 37.049 109.938 37.7265 110.411 38.6088C110.894 39.4912 111.136 40.5415 111.136 41.76C111.136 42.9679 110.894 44.0183 110.411 44.9111C109.938 45.7935 109.256 46.4762 108.363 46.9594C107.481 47.4321 106.425 47.6684 105.196 47.6684ZM105.196 45.7304C105.973 45.7304 106.635 45.5729 107.181 45.2578C107.727 44.9427 108.142 44.491 108.426 43.9028C108.72 43.3041 108.867 42.5898 108.867 41.76C108.867 40.9302 108.72 40.2212 108.426 39.633C108.142 39.0342 107.727 38.5773 107.181 38.2622C106.635 37.9471 105.973 37.7895 105.196 37.7895C104.429 37.7895 103.767 37.9471 103.211 38.2622C102.665 38.5773 102.244 39.0342 101.95 39.633C101.667 40.2212 101.525 40.9302 101.525 41.76C101.525 42.5898 101.667 43.3041 101.95 43.9028C102.244 44.491 102.665 44.9427 103.211 45.2578C103.767 45.5729 104.429 45.7304 105.196 45.7304Z" fill="white"/>
<path d="M113.156 47.5108V36.0091H115.456L120.262 43.8397H120.293V36.0091H122.499V47.5108H120.183L115.393 39.6802H115.362V47.5108H113.156Z" fill="white"/>
<path d="M130.443 47.6684C129.235 47.6684 128.185 47.4321 127.292 46.9594C126.399 46.4762 125.711 45.7935 125.228 44.9111C124.755 44.0183 124.519 42.9679 124.519 41.76C124.519 40.5415 124.755 39.4912 125.228 38.6088C125.711 37.7265 126.399 37.049 127.292 36.5763C128.185 36.0932 129.235 35.8516 130.443 35.8516C131.672 35.8516 132.728 36.0932 133.61 36.5763C134.503 37.049 135.186 37.7265 135.658 38.6088C136.142 39.4912 136.383 40.5415 136.383 41.76C136.383 42.9679 136.142 44.0183 135.658 44.9111C135.186 45.7935 134.503 46.4762 133.61 46.9594C132.728 47.4321 131.672 47.6684 130.443 47.6684ZM130.443 45.7304C131.221 45.7304 131.882 45.5729 132.428 45.2578C132.975 44.9427 133.39 44.491 133.673 43.9028C133.967 43.3041 134.114 42.5898 134.114 41.76C134.114 40.9302 133.967 40.2212 133.673 39.633C133.39 39.0342 132.975 38.5773 132.428 38.2622C131.882 37.9471 131.221 37.7895 130.443 37.7895C129.676 37.7895 129.015 37.9471 128.458 38.2622C127.912 38.5773 127.492 39.0342 127.198 39.633C126.914 40.2212 126.772 40.9302 126.772 41.76C126.772 42.5898 126.914 43.3041 127.198 43.9028C127.492 44.491 127.912 44.9427 128.458 45.2578C129.015 45.5729 129.676 45.7304 130.443 45.7304Z" fill="white"/>
<path d="M71.2847 61.1753C70.8226 61.1753 70.426 61.0913 70.0952 60.9233C69.7643 60.7552 69.5096 60.5136 69.331 60.1985C69.1577 59.8781 69.071 59.4947 69.071 59.0483C69.071 58.6019 69.1577 58.2211 69.331 57.906C69.5096 57.5857 69.7643 57.3414 70.0952 57.1734C70.426 57.0053 70.8226 56.9213 71.2847 56.9213C71.5158 56.9213 71.7338 56.9449 71.9386 56.9922C72.1434 57.0342 72.343 57.1077 72.5373 57.2128L72.3876 57.8981C72.2091 57.8036 72.0331 57.7353 71.8598 57.6933C71.6865 57.6513 71.5132 57.6303 71.3399 57.6303C70.8935 57.6303 70.5468 57.7537 70.3 58.0006C70.0584 58.2474 69.9376 58.5966 69.9376 59.0483C69.9376 59.4947 70.0584 59.844 70.3 60.0961C70.5468 60.3429 70.8935 60.4663 71.3399 60.4663C71.5132 60.4663 71.6865 60.4453 71.8598 60.4033C72.0331 60.3613 72.2091 60.293 72.3876 60.1985L72.5373 60.8839C72.343 60.9837 72.1434 61.0572 71.9386 61.1044C71.7338 61.1517 71.5158 61.1753 71.2847 61.1753Z" fill="white"/>
<path d="M73.745 61.0966V55.3457H74.5958V57.4885H74.6116C74.7744 57.2994 74.9687 57.1576 75.1945 57.0631C75.4204 56.9685 75.6803 56.9213 75.9745 56.9213C76.4839 56.9213 76.8568 57.0552 77.0931 57.3231C77.3347 57.5909 77.4529 58.0084 77.4476 58.5756V61.0966H76.5968V58.7332C76.6021 58.3551 76.5338 58.0767 76.392 57.8981C76.2502 57.7196 76.0322 57.6303 75.7381 57.6303C75.5175 57.6303 75.3206 57.6749 75.1473 57.7642C74.9792 57.8535 74.8453 57.9769 74.7455 58.1345C74.651 58.2868 74.6011 58.4627 74.5958 58.6623V61.0966H73.745Z" fill="white"/>
<path d="M78.7212 56.2123V55.3457H79.5877V56.2123H78.7212ZM78.7212 61.0966V57.0001H79.5877V61.0966H78.7212Z" fill="white"/>
<path d="M81.0186 61.0966V55.3457H81.8852V61.0966H81.0186Z" fill="white"/>
<path d="M84.7256 61.1753C84.1794 61.1753 83.7514 60.9889 83.4415 60.616C83.1316 60.2379 82.9767 59.7153 82.9767 59.0483C82.9767 58.3813 83.1316 57.8614 83.4415 57.4885C83.7514 57.1104 84.1794 56.9213 84.7256 56.9213C85.004 56.9213 85.2561 56.9712 85.4819 57.071C85.713 57.1655 85.902 57.3047 86.0491 57.4885H86.0649V55.3457H86.9157V61.0966H86.1042L86.0964 60.6081H86.0806C85.9336 60.7867 85.7392 60.9259 85.4976 61.0257C85.2613 61.1255 85.004 61.1753 84.7256 61.1753ZM84.9147 60.4663C85.1405 60.4663 85.3375 60.4217 85.5055 60.3324C85.6788 60.2431 85.8154 60.1197 85.9152 59.9622C86.015 59.8046 86.0649 59.6287 86.0649 59.4343V58.6623C86.0649 58.4627 86.015 58.2868 85.9152 58.1345C85.8154 57.9769 85.6788 57.8535 85.5055 57.7642C85.3375 57.6749 85.1431 57.6303 84.9226 57.6303C84.5707 57.6303 84.2976 57.7537 84.1033 58.0006C83.9089 58.2421 83.8118 58.5914 83.8118 59.0483C83.8118 59.5 83.9089 59.8492 84.1033 60.0961C84.2976 60.3429 84.5681 60.4663 84.9147 60.4663Z" fill="white"/>
<path d="M91.8949 61.1753C91.7111 61.1753 91.5194 61.1622 91.3198 61.136C91.1255 61.1149 90.9391 61.0834 90.7605 61.0414C90.582 60.9942 90.4244 60.9416 90.2878 60.8839L90.406 60.1906C90.6371 60.2746 90.8708 60.3429 91.1071 60.3954C91.3435 60.4427 91.5772 60.4663 91.8083 60.4663C92.1129 60.4663 92.3387 60.4243 92.4858 60.3403C92.6381 60.251 92.7142 60.1197 92.7142 59.9464C92.7142 59.8466 92.688 59.7652 92.6355 59.7022C92.5829 59.6339 92.491 59.5735 92.3597 59.521C92.2284 59.4632 92.0472 59.4081 91.8162 59.3556C91.501 59.2768 91.2253 59.1849 90.989 59.0798C90.7579 58.9748 90.5793 58.8409 90.4533 58.6781C90.3272 58.5152 90.2642 58.3104 90.2642 58.0636C90.2642 57.6907 90.406 57.4071 90.6896 57.2128C90.9785 57.0184 91.3934 56.9213 91.9343 56.9213C92.1864 56.9213 92.4438 56.9423 92.7064 56.9843C92.9742 57.0263 93.2184 57.0867 93.439 57.1655L93.313 57.8588C93.1029 57.78 92.8902 57.7222 92.6748 57.6854C92.4648 57.6487 92.2521 57.6303 92.0367 57.6303C91.7269 57.6303 91.4958 57.6697 91.3435 57.7485C91.1964 57.822 91.1229 57.9349 91.1229 58.0872C91.1229 58.1765 91.1465 58.2526 91.1938 58.3157C91.2463 58.3787 91.3356 58.4365 91.4617 58.489C91.5877 58.5415 91.7636 58.594 91.9895 58.6465C92.2206 58.6991 92.4306 58.7621 92.6197 58.8356C92.814 58.9091 92.9821 58.9984 93.1239 59.1035C93.2657 59.2032 93.376 59.324 93.4548 59.4658C93.5335 59.6076 93.5729 59.7757 93.5729 59.97C93.5729 60.2221 93.5047 60.4374 93.3681 60.616C93.2368 60.7946 93.0451 60.9338 92.793 61.0335C92.5462 61.1281 92.2468 61.1753 91.8949 61.1753Z" fill="white"/>
<path d="M95.9153 61.1753C95.4216 61.1753 95.0592 61.0414 94.8281 60.7736C94.597 60.5057 94.4815 60.0882 94.4815 59.521V57.0001H95.3323V59.3634C95.3323 59.7416 95.3953 60.0199 95.5214 60.1985C95.6527 60.3771 95.8628 60.4663 96.1516 60.4663C96.3669 60.4663 96.556 60.4217 96.7188 60.3324C96.8869 60.2431 97.0182 60.1223 97.1127 59.97C97.2073 59.8125 97.2545 59.6365 97.2545 59.4422V57.0001H98.1053V61.0966H97.2939L97.286 60.6081H97.2703C97.1075 60.7972 96.9158 60.939 96.6952 61.0335C96.4746 61.1281 96.2146 61.1753 95.9153 61.1753Z" fill="white"/>
<path d="M101.618 56.9213C102.164 56.9213 102.592 57.1104 102.902 57.4885C103.212 57.8614 103.367 58.3813 103.367 59.0483C103.367 59.7153 103.212 60.2379 102.902 60.616C102.592 60.9889 102.164 61.1753 101.618 61.1753C101.345 61.1753 101.093 61.1255 100.862 61.0257C100.631 60.9259 100.442 60.7867 100.295 60.6081H100.279V62.7509H99.4282V57.0001H100.24L100.247 57.4885H100.263C100.416 57.3047 100.61 57.1655 100.846 57.071C101.083 56.9712 101.34 56.9213 101.618 56.9213ZM101.421 57.6303C101.206 57.6303 101.012 57.6749 100.838 57.7642C100.665 57.8535 100.528 57.9769 100.429 58.1345C100.329 58.2868 100.279 58.4627 100.279 58.6623V59.4343C100.279 59.6287 100.329 59.8046 100.429 59.9622C100.528 60.1197 100.665 60.2431 100.838 60.3324C101.012 60.4217 101.206 60.4663 101.421 60.4663C101.778 60.4663 102.052 60.3429 102.241 60.0961C102.435 59.8492 102.532 59.5 102.532 59.0483C102.532 58.5966 102.435 58.2474 102.241 58.0006C102.052 57.7537 101.778 57.6303 101.421 57.6303Z" fill="white"/>
<path d="M106.585 56.9213C107.131 56.9213 107.559 57.1104 107.869 57.4885C108.179 57.8614 108.334 58.3813 108.334 59.0483C108.334 59.7153 108.179 60.2379 107.869 60.616C107.559 60.9889 107.131 61.1753 106.585 61.1753C106.312 61.1753 106.06 61.1255 105.829 61.0257C105.598 60.9259 105.409 60.7867 105.262 60.6081H105.246V62.7509H104.395V57.0001H105.207L105.214 57.4885H105.23C105.383 57.3047 105.577 57.1655 105.813 57.071C106.05 56.9712 106.307 56.9213 106.585 56.9213ZM106.388 57.6303C106.173 57.6303 105.979 57.6749 105.805 57.7642C105.632 57.8535 105.495 57.9769 105.396 58.1345C105.296 58.2868 105.246 58.4627 105.246 58.6623V59.4343C105.246 59.6287 105.296 59.8046 105.396 59.9622C105.495 60.1197 105.632 60.2431 105.805 60.3324C105.979 60.4217 106.173 60.4663 106.388 60.4663C106.745 60.4663 107.019 60.3429 107.208 60.0961C107.402 59.8492 107.499 59.5 107.499 59.0483C107.499 58.5966 107.402 58.2474 107.208 58.0006C107.019 57.7537 106.745 57.6303 106.388 57.6303Z" fill="white"/>
<path d="M111.15 61.1753C110.498 61.1753 109.994 60.9915 109.637 60.6239C109.28 60.251 109.101 59.7258 109.101 59.0483C109.101 58.3708 109.28 57.8482 109.637 57.4806C109.994 57.1077 110.498 56.9213 111.15 56.9213C111.801 56.9213 112.305 57.1077 112.662 57.4806C113.019 57.8482 113.198 58.3708 113.198 59.0483C113.198 59.7258 113.019 60.251 112.662 60.6239C112.305 60.9915 111.801 61.1753 111.15 61.1753ZM111.15 60.4663C111.538 60.4663 111.835 60.3455 112.04 60.104C112.245 59.8624 112.347 59.5105 112.347 59.0483C112.347 58.5861 112.245 58.2343 112.04 57.9927C111.835 57.7511 111.538 57.6303 111.15 57.6303C110.766 57.6303 110.469 57.7511 110.259 57.9927C110.054 58.2343 109.952 58.5861 109.952 59.0483C109.952 59.5105 110.054 59.8624 110.259 60.104C110.469 60.3455 110.766 60.4663 111.15 60.4663Z" fill="white"/>
<path d="M114.221 61.0966V57.0001H115.041L115.049 57.7879H115.064C115.196 57.604 115.353 57.4491 115.537 57.3231C115.726 57.1918 115.936 57.092 116.167 57.0237C116.404 56.9554 116.648 56.9213 116.9 56.9213V57.6697C116.564 57.6697 116.257 57.7353 115.978 57.8666C115.705 57.9979 115.487 58.1739 115.324 58.3944C115.162 58.615 115.08 58.8592 115.08 59.1271V61.0966H114.221Z" fill="white"/>
<path d="M119.692 61.1753C119.22 61.1753 118.878 61.0782 118.668 60.8839C118.464 60.6843 118.361 60.3613 118.361 59.9149V57.7091H117.416V57.0001H118.361V55.6608H119.22V57.0001H120.646V57.7091H119.22V59.6785C119.22 59.9569 119.267 60.1512 119.362 60.2615C119.456 60.3718 119.624 60.4269 119.866 60.4269C119.987 60.4269 120.107 60.4164 120.228 60.3954C120.354 60.3744 120.467 60.3455 120.567 60.3088L120.646 61.0335C120.478 61.0861 120.315 61.1228 120.157 61.1438C120.005 61.1648 119.85 61.1753 119.692 61.1753Z" fill="white"/>
<path d="M125.407 61.1753C125.223 61.1753 125.031 61.1622 124.832 61.136C124.638 61.1149 124.451 61.0834 124.273 61.0414C124.094 60.9942 123.936 60.9416 123.8 60.8839L123.918 60.1906C124.149 60.2746 124.383 60.3429 124.619 60.3954C124.856 60.4427 125.089 60.4663 125.32 60.4663C125.625 60.4663 125.851 60.4243 125.998 60.3403C126.15 60.251 126.226 60.1197 126.226 59.9464C126.226 59.8466 126.2 59.7652 126.148 59.7022C126.095 59.6339 126.003 59.5735 125.872 59.521C125.74 59.4632 125.559 59.4081 125.328 59.3556C125.013 59.2768 124.737 59.1849 124.501 59.0798C124.27 58.9748 124.091 58.8409 123.965 58.6781C123.839 58.5152 123.776 58.3104 123.776 58.0636C123.776 57.6907 123.918 57.4071 124.202 57.2128C124.491 57.0184 124.905 56.9213 125.446 56.9213C125.698 56.9213 125.956 56.9423 126.218 56.9843C126.486 57.0263 126.73 57.0867 126.951 57.1655L126.825 57.8588C126.615 57.78 126.402 57.7222 126.187 57.6854C125.977 57.6487 125.764 57.6303 125.549 57.6303C125.239 57.6303 125.008 57.6697 124.856 57.7485C124.708 57.822 124.635 57.9349 124.635 58.0872C124.635 58.1765 124.659 58.2526 124.706 58.3157C124.758 58.3787 124.848 58.4365 124.974 58.489C125.1 58.5415 125.276 58.594 125.502 58.6465C125.733 58.6991 125.943 58.7621 126.132 58.8356C126.326 58.9091 126.494 58.9984 126.636 59.1035C126.778 59.2032 126.888 59.324 126.967 59.4658C127.046 59.6076 127.085 59.7757 127.085 59.97C127.085 60.2221 127.017 60.4374 126.88 60.616C126.749 60.7946 126.557 60.9338 126.305 61.0335C126.058 61.1281 125.759 61.1753 125.407 61.1753Z" fill="white"/>
<path d="M128.112 61.0966V55.3457H128.963V57.4885H128.978C129.141 57.2994 129.335 57.1576 129.561 57.0631C129.787 56.9685 130.047 56.9213 130.341 56.9213C130.851 56.9213 131.223 57.0552 131.46 57.3231C131.701 57.5909 131.82 58.0084 131.814 58.5756V61.0966H130.964V58.7332C130.969 58.3551 130.9 58.0767 130.759 57.8981C130.617 57.7196 130.399 57.6303 130.105 57.6303C129.884 57.6303 129.687 57.6749 129.514 57.7642C129.346 57.8535 129.212 57.9769 129.112 58.1345C129.018 58.2868 128.968 58.4627 128.963 58.6623V61.0966H128.112Z" fill="white"/>
<path d="M133.986 61.1753C133.576 61.1753 133.253 61.0651 133.017 60.8445C132.781 60.6186 132.662 60.314 132.662 59.9306C132.662 59.4527 132.852 59.0851 133.23 58.8277C133.608 58.5651 134.146 58.4338 134.845 58.4338H135.435C135.435 58.2238 135.409 58.061 135.357 57.9454C135.304 57.8299 135.212 57.7485 135.081 57.7012C134.955 57.6539 134.779 57.6303 134.553 57.6303C134.285 57.6303 134.012 57.6566 133.734 57.7091C133.461 57.7616 133.201 57.8404 132.954 57.9454L132.836 57.2443C133.098 57.1445 133.387 57.0657 133.702 57.0079C134.023 56.9502 134.343 56.9213 134.663 56.9213C135.073 56.9213 135.393 56.9712 135.625 57.071C135.861 57.1707 136.029 57.3388 136.129 57.5751C136.234 57.8115 136.286 58.124 136.286 58.5126V61.0966H135.475L135.467 60.6239H135.451C135.309 60.7867 135.099 60.9206 134.821 61.0257C134.548 61.1255 134.27 61.1753 133.986 61.1753ZM134.285 60.4821C134.495 60.4821 134.687 60.4427 134.86 60.3639C135.039 60.2851 135.178 60.1801 135.278 60.0488C135.383 59.9175 135.435 59.7705 135.435 59.6076V59.0798H134.963C134.48 59.0798 134.117 59.1428 133.876 59.2689C133.634 59.3949 133.513 59.5866 133.513 59.844C133.513 60.0436 133.579 60.2011 133.71 60.3167C133.847 60.4269 134.038 60.4821 134.285 60.4821Z" fill="white"/>
<path d="M137.492 61.0966V57.0001H138.311L138.319 57.7879H138.335C138.466 57.604 138.624 57.4491 138.807 57.3231C138.996 57.1918 139.207 57.092 139.438 57.0237C139.674 56.9554 139.918 56.9213 140.17 56.9213V57.6697C139.834 57.6697 139.527 57.7353 139.249 57.8666C138.975 57.9979 138.757 58.1739 138.595 58.3944C138.432 58.615 138.35 58.8592 138.35 59.1271V61.0966H137.492Z" fill="white"/>
<path d="M141.022 56.2123V55.3457H141.888V56.2123H141.022ZM141.022 61.0966V57.0001H141.888V61.0966H141.022Z" fill="white"/>
<path d="M143.279 61.0966V57.0001H144.091L144.098 57.4885H144.114C144.277 57.2994 144.474 57.1576 144.705 57.0631C144.936 56.9685 145.204 56.9213 145.509 56.9213C146.013 56.9213 146.383 57.0552 146.619 57.3231C146.861 57.5909 146.982 58.0084 146.982 58.5756V61.0966H146.131V58.7332C146.131 58.3551 146.06 58.0767 145.918 57.8981C145.782 57.7196 145.566 57.6303 145.272 57.6303C145.052 57.6303 144.855 57.6749 144.681 57.7642C144.508 57.8535 144.371 57.9743 144.272 58.1266C144.177 58.2789 144.13 58.4548 144.13 58.6544V61.0966H143.279Z" fill="white"/>
<path d="M149.728 62.8297C149.408 62.8297 149.103 62.7982 148.815 62.7352C148.526 62.6721 148.284 62.5829 148.09 62.4673L148.208 61.7741C148.397 61.8844 148.618 61.9684 148.87 62.0262C149.127 62.0892 149.387 62.1207 149.65 62.1207C150.128 62.1207 150.469 62.0078 150.674 61.7819C150.879 61.5561 150.981 61.1832 150.981 60.6633V60.4033H150.965C150.818 60.5766 150.629 60.7106 150.398 60.8051C150.167 60.8944 149.915 60.939 149.642 60.939C149.096 60.939 148.668 60.7631 148.358 60.4112C148.048 60.0541 147.893 59.5604 147.893 58.9301C147.893 58.2999 148.048 57.8089 148.358 57.457C148.668 57.0998 149.096 56.9213 149.642 56.9213C149.92 56.9213 150.177 56.9685 150.414 57.0631C150.655 57.1576 150.85 57.2889 150.997 57.457H151.013L151.02 57.0001H151.832V60.6633C151.832 61.4038 151.661 61.95 151.32 62.3019C150.978 62.6538 150.448 62.8297 149.728 62.8297ZM149.839 60.23C150.059 60.23 150.254 60.1906 150.422 60.1118C150.595 60.0331 150.732 59.9254 150.831 59.7888C150.931 59.6523 150.981 59.4974 150.981 59.324V58.5363C150.981 58.3629 150.931 58.208 150.831 58.0715C150.732 57.9349 150.595 57.8272 150.422 57.7485C150.254 57.6697 150.059 57.6303 149.839 57.6303C149.487 57.6303 149.214 57.7432 149.019 57.969C148.825 58.1949 148.728 58.5152 148.728 58.9301C148.728 59.345 148.825 59.6654 149.019 59.8912C149.214 60.1171 149.487 60.23 149.839 60.23Z" fill="white"/>
<path d="M41.3363 99.0481V91.8941H51.6963V96.8921C51.6963 97.3401 51.673 97.7041 51.6263 97.9841C51.589 98.2641 51.5003 98.4787 51.3603 98.6281C51.2203 98.7774 51.0057 98.8801 50.7163 98.9361C50.427 98.9921 50.035 99.0201 49.5403 99.0201C49.363 99.0201 49.1203 99.0154 48.8123 99.0061C48.5043 98.9967 48.0517 98.9781 47.4543 98.9501L47.4123 97.4941C47.879 97.5127 48.2663 97.5314 48.5743 97.5501C48.8917 97.5687 49.139 97.5781 49.3163 97.5781C49.475 97.5781 49.587 97.5734 49.6523 97.5641C49.7177 97.5547 49.755 97.5267 49.7643 97.4801C49.7737 97.4241 49.7783 97.3401 49.7783 97.2281V96.8221H43.2543V95.6881H49.7783V95.0021H43.2543V93.8541H49.7783V93.1821H43.2543V99.0481H41.3363ZM44.2203 90.9281L42.6943 90.2561C42.9557 89.8734 43.203 89.4814 43.4363 89.0801C43.679 88.6787 43.8983 88.2727 44.0943 87.8621L45.7183 88.4221C45.5037 88.8514 45.2703 89.2761 45.0183 89.6961C44.7663 90.1161 44.5003 90.5267 44.2203 90.9281ZM40.6363 91.4321L40.5383 90.0321C42.1063 89.9947 43.735 89.9341 45.4243 89.8501C47.1137 89.7567 48.831 89.6401 50.5763 89.5001L50.7163 90.8581C48.943 91.0074 47.2117 91.1334 45.5223 91.2361C43.833 91.3294 42.2043 91.3947 40.6363 91.4321ZM40.1743 88.6881V87.2321H45.5643V86.1681H47.4683V87.2321H52.8583V88.6881H40.1743ZM51.1783 92.0061C50.7117 91.3994 50.2263 90.8161 49.7223 90.2561C49.2183 89.6961 48.7003 89.1547 48.1683 88.6321L49.7083 87.9181C50.2403 88.4127 50.7677 88.9447 51.2903 89.5141C51.813 90.0741 52.3217 90.6527 52.8163 91.2501L51.1783 92.0061ZM58.3483 93.8401V86.7421H66.2583V93.8401H60.1263V92.4121H64.3963V91.0121H60.1263V89.6121H64.3963V88.2401H60.1263V93.8401H58.3483ZM55.0303 99.0901L54.2323 97.5781C55.1377 97.3447 55.861 97.0881 56.4023 96.8081C56.9437 96.5187 57.345 96.1687 57.6063 95.7581C57.877 95.3474 58.0543 94.8481 58.1383 94.2601L59.8883 94.3581C59.8323 95.1701 59.6177 95.8841 59.2443 96.5001C58.8803 97.1067 58.3483 97.6201 57.6483 98.0401C56.9577 98.4694 56.085 98.8194 55.0303 99.0901ZM55.1143 94.4001V86.6581H56.9343V94.4001H55.1143ZM64.1443 98.9081C63.519 98.9081 63.0197 98.8894 62.6463 98.8521C62.2823 98.8147 62.0117 98.7401 61.8343 98.6281C61.657 98.5161 61.5403 98.3481 61.4843 98.1241C61.4283 97.9001 61.4003 97.5967 61.4003 97.2141V94.3021H63.2763V96.8921C63.2763 97.0041 63.281 97.0927 63.2903 97.1581C63.309 97.2141 63.351 97.2607 63.4163 97.2981C63.4817 97.3261 63.5843 97.3447 63.7243 97.3541C63.8737 97.3634 64.0743 97.3681 64.3263 97.3681C64.5503 97.3681 64.7277 97.3587 64.8583 97.3401C64.989 97.3121 65.087 97.2421 65.1523 97.1301C65.2177 97.0087 65.2597 96.8174 65.2783 96.5561C65.3063 96.2947 65.3297 95.9261 65.3483 95.4501L67.1263 95.5901C67.0983 96.2341 67.061 96.7614 67.0143 97.1721C66.9677 97.5827 66.8883 97.9047 66.7763 98.1381C66.6737 98.3714 66.515 98.5441 66.3003 98.6561C66.095 98.7681 65.8197 98.8381 65.4743 98.8661C65.129 98.8941 64.6857 98.9081 64.1443 98.9081ZM68.2483 97.8301L70.4743 94.1761L68.2623 90.5501H70.3623L71.7763 93.1681H71.8043L73.2183 90.5501H75.3183L73.1203 94.1761L75.3463 97.8301H73.2463L71.8043 95.1841H71.7763L70.3483 97.8301H68.2483ZM83.713 99.1181V94.1201H80.073V92.6221H83.713V91.7401H82.467V90.2981H86.933V88.2401H82.467V91.7401H80.661V86.7421H88.753V91.7401H85.575V92.6221H89.257V94.1201H85.575V99.1181H83.713ZM77.427 99.1321V90.1301H79.233V99.1321H77.427ZM80.465 98.6141L79.597 97.0181C80.521 96.3927 81.3143 95.7487 81.977 95.0861C82.6397 94.4141 83.1857 93.7141 83.615 92.9861L84.805 93.6021C83.8343 95.4781 82.3877 97.1487 80.465 98.6141ZM76.559 94.5401L76.055 92.3701C76.4563 91.8287 76.8063 91.2594 77.105 90.6621C77.413 90.0647 77.679 89.4161 77.903 88.7161C78.1363 88.0161 78.337 87.2367 78.505 86.3781L80.227 86.6861C80.0777 87.6381 79.863 88.5294 79.583 89.3601C79.3123 90.1814 78.9997 90.9187 78.645 91.5721L78.449 91.2361C78.365 91.5067 78.2483 91.7914 78.099 92.0901C77.9497 92.3887 77.7863 92.6921 77.609 93.0001C77.441 93.3081 77.2637 93.5927 77.077 93.8541C76.8903 94.1154 76.7177 94.3441 76.559 94.5401ZM88.865 98.6421C87.9037 97.9047 87.0637 97.1207 86.345 96.2901C85.6263 95.4501 85.029 94.5634 84.553 93.6301L85.645 92.9861C86.0743 93.7234 86.6157 94.4281 87.269 95.1001C87.9317 95.7721 88.7203 96.4301 89.635 97.0741L88.865 98.6421ZM91.905 99.0481V91.8941H102.265V96.8921C102.265 97.3401 102.242 97.7041 102.195 97.9841C102.158 98.2641 102.069 98.4787 101.929 98.6281C101.789 98.7774 101.574 98.8801 101.285 98.9361C100.996 98.9921 100.604 99.0201 100.109 99.0201C99.9317 99.0201 99.689 99.0154 99.381 99.0061C99.073 98.9967 98.6203 98.9781 98.023 98.9501L97.981 97.4941C98.4477 97.5127 98.835 97.5314 99.143 97.5501C99.4603 97.5687 99.7077 97.5781 99.885 97.5781C100.044 97.5781 100.156 97.5734 100.221 97.5641C100.286 97.5547 100.324 97.5267 100.333 97.4801C100.342 97.4241 100.347 97.3401 100.347 97.2281V96.8221H93.823V95.6881H100.347V95.0021H93.823V93.8541H100.347V93.1821H93.823V99.0481H91.905ZM94.789 90.9281L93.263 90.2561C93.5243 89.8734 93.7717 89.4814 94.005 89.0801C94.2477 88.6787 94.467 88.2727 94.663 87.8621L96.287 88.4221C96.0723 88.8514 95.839 89.2761 95.587 89.6961C95.335 90.1161 95.069 90.5267 94.789 90.9281ZM91.205 91.4321L91.107 90.0321C92.675 89.9947 94.3037 89.9341 95.993 89.8501C97.6823 89.7567 99.3997 89.6401 101.145 89.5001L101.285 90.8581C99.5117 91.0074 97.7803 91.1334 96.091 91.2361C94.4017 91.3294 92.773 91.3947 91.205 91.4321ZM90.743 88.6881V87.2321H96.133V86.1681H98.037V87.2321H103.427V88.6881H90.743ZM101.747 92.0061C101.28 91.3994 100.795 90.8161 100.291 90.2561C99.787 89.6961 99.269 89.1547 98.737 88.6321L100.277 87.9181C100.809 88.4127 101.336 88.9447 101.859 89.5141C102.382 90.0741 102.89 90.6527 103.385 91.2501L101.747 92.0061ZM104.647 97.8301L106.873 94.1761L104.661 90.5501H106.761L108.175 93.1681H108.203L109.617 90.5501H111.717L109.519 94.1761L111.745 97.8301H109.645L108.203 95.1841H108.175L106.747 97.8301H104.647ZM114.162 99.0761L112.93 97.8021C113.191 97.4941 113.41 97.2001 113.588 96.9201C113.774 96.6401 113.924 96.3367 114.036 96.0101C114.157 95.6834 114.25 95.3101 114.316 94.8901C114.381 94.4607 114.423 93.9427 114.442 93.3361C114.47 92.7294 114.484 92.0061 114.484 91.1661V87.0221H119.384V86.1121H121.246V87.0221H125.866V88.4921H116.066V92.4681C116.066 93.3267 116.028 94.0827 115.954 94.7361C115.888 95.3801 115.781 95.9541 115.632 96.4581C115.482 96.9621 115.286 97.4241 115.044 97.8441C114.801 98.2734 114.507 98.6841 114.162 99.0761ZM112.916 95.8001L112.426 94.2181C112.92 94.0314 113.378 93.8354 113.798 93.6301C114.218 93.4247 114.591 93.2194 114.918 93.0141L115.436 94.4841C115.1 94.7174 114.717 94.9461 114.288 95.1701C113.868 95.3941 113.41 95.6041 112.916 95.8001ZM116.57 98.9781L115.38 97.8581C115.837 97.6154 116.266 97.3354 116.668 97.0181C117.069 96.7007 117.405 96.3741 117.676 96.0381L119.174 96.7101C118.856 97.1394 118.464 97.5547 117.998 97.9561C117.54 98.3574 117.064 98.6981 116.57 98.9781ZM113.994 91.8101C113.788 91.4181 113.555 91.0027 113.294 90.5641C113.032 90.1254 112.752 89.6867 112.454 89.2481L113.798 88.3801C114.087 88.8374 114.358 89.2807 114.61 89.7101C114.871 90.1394 115.114 90.5547 115.338 90.9561L113.994 91.8101ZM120.364 99.1181C120.196 99.1181 119.972 99.1134 119.692 99.1041C119.421 99.0947 119.062 99.0761 118.614 99.0481L118.516 97.5501C118.824 97.5781 119.066 97.5967 119.244 97.6061C119.43 97.6154 119.57 97.6201 119.664 97.6201C119.869 97.6201 120.009 97.6154 120.084 97.6061C120.158 97.5874 120.2 97.5454 120.21 97.4801C120.228 97.4054 120.238 97.2887 120.238 97.1301V96.1921H117.256V92.4681H118.992V95.0581H122.758V94.4281H118.992V93.4621H122.758V92.4681H124.536V96.1921H122.072V97.6481C122.072 97.9747 122.053 98.2361 122.016 98.4321C121.988 98.6281 121.918 98.7727 121.806 98.8661C121.694 98.9687 121.521 99.0341 121.288 99.0621C121.054 99.0994 120.746 99.1181 120.364 99.1181ZM117.984 92.9161C117.676 92.5987 117.363 92.2861 117.046 91.9781C116.728 91.6701 116.411 91.3761 116.094 91.0961L117.326 90.2001C117.643 90.4801 117.96 90.7741 118.278 91.0821C118.595 91.3807 118.908 91.6934 119.216 92.0201L117.984 92.9161ZM124.914 98.9781C124.531 98.6234 124.125 98.2827 123.696 97.9561C123.276 97.6294 122.846 97.3307 122.408 97.0601L123.598 96.0381C124.055 96.2994 124.489 96.5841 124.9 96.8921C125.31 97.2001 125.712 97.5361 126.104 97.9001L124.914 98.9781ZM116.262 94.7781L115.604 93.2521C116.229 92.9534 116.798 92.6174 117.312 92.2441C117.825 91.8707 118.278 91.4647 118.67 91.0261C119.062 90.5781 119.384 90.1067 119.636 89.6121C119.888 89.1174 120.07 88.6041 120.182 88.0721L122.002 88.2401C121.862 88.8187 121.614 89.4114 121.26 90.0181C120.914 90.6247 120.485 91.2221 119.972 91.8101C119.468 92.3887 118.898 92.9347 118.264 93.4481C117.638 93.9614 116.971 94.4047 116.262 94.7781ZM118.166 92.8601V91.7121H123.584V92.8601H118.166ZM116.29 90.3121V89.0101H125.684V90.3121H116.29ZM125.6 94.6801C124.853 94.2974 124.148 93.8494 123.486 93.3361C122.832 92.8134 122.244 92.2441 121.722 91.6281C121.208 91.0121 120.788 90.3821 120.462 89.7381L121.904 89.0801C122.146 89.6774 122.459 90.2234 122.842 90.7181C123.224 91.2127 123.686 91.6654 124.228 92.0761C124.769 92.4774 125.394 92.8414 126.104 93.1681L125.6 94.6801ZM124.186 92.5521L122.856 91.8381C123.117 91.5861 123.369 91.3201 123.612 91.0401C123.854 90.7601 124.078 90.4801 124.284 90.2001L125.656 90.8581C125.441 91.1474 125.212 91.4367 124.97 91.7261C124.727 92.0061 124.466 92.2814 124.186 92.5521ZM128.304 99.0481V91.8941H138.664V96.8921C138.664 97.3401 138.64 97.7041 138.594 97.9841C138.556 98.2641 138.468 98.4787 138.328 98.6281C138.188 98.7774 137.973 98.8801 137.684 98.9361C137.394 98.9921 137.002 99.0201 136.508 99.0201C136.33 99.0201 136.088 99.0154 135.78 99.0061C135.472 98.9967 135.019 98.9781 134.422 98.9501L134.38 97.4941C134.846 97.5127 135.234 97.5314 135.542 97.5501C135.859 97.5687 136.106 97.5781 136.284 97.5781C136.442 97.5781 136.554 97.5734 136.62 97.5641C136.685 97.5547 136.722 97.5267 136.732 97.4801C136.741 97.4241 136.746 97.3401 136.746 97.2281V96.8221H130.222V95.6881H136.746V95.0021H130.222V93.8541H136.746V93.1821H130.222V99.0481H128.304ZM131.188 90.9281L129.662 90.2561C129.923 89.8734 130.17 89.4814 130.404 89.0801C130.646 88.6787 130.866 88.2727 131.062 87.8621L132.686 88.4221C132.471 88.8514 132.238 89.2761 131.986 89.6961C131.734 90.1161 131.468 90.5267 131.188 90.9281ZM127.604 91.4321L127.506 90.0321C129.074 89.9947 130.702 89.9341 132.392 89.8501C134.081 89.7567 135.798 89.6401 137.544 89.5001L137.684 90.8581C135.91 91.0074 134.179 91.1334 132.49 91.2361C130.8 91.3294 129.172 91.3947 127.604 91.4321ZM127.142 88.6881V87.2321H132.532V86.1681H134.436V87.2321H139.826V88.6881H127.142ZM138.146 92.0061C137.679 91.3994 137.194 90.8161 136.69 90.2561C136.186 89.6961 135.668 89.1547 135.136 88.6321L136.676 87.9181C137.208 88.4127 137.735 88.9447 138.258 89.5141C138.78 90.0741 139.289 90.6527 139.784 91.2501L138.146 92.0061ZM45.32 119.09V112.482H53.3V117.13C53.3 117.578 53.2813 117.933 53.244 118.194C53.2067 118.455 53.118 118.647 52.978 118.768C52.8473 118.899 52.642 118.978 52.362 119.006C52.082 119.043 51.704 119.062 51.228 119.062C51.0693 119.062 50.8593 119.057 50.598 119.048C50.3367 119.048 49.954 119.034 49.45 119.006L49.408 117.606C49.7907 117.625 50.1033 117.639 50.346 117.648C50.5887 117.657 50.7893 117.662 50.948 117.662C51.0973 117.662 51.2047 117.657 51.27 117.648C51.3353 117.639 51.3727 117.611 51.382 117.564C51.4007 117.517 51.41 117.433 51.41 117.312V117.06H47.168V115.996H51.41V115.38H47.168V114.302H51.41V113.7H47.168V119.09H45.32ZM41.82 114.302L40.602 114.036C40.7513 113.224 40.8867 112.398 41.008 111.558C41.1293 110.718 41.2273 109.883 41.302 109.052L42.52 109.192C42.4453 110.041 42.3473 110.9 42.226 111.768C42.1047 112.627 41.9693 113.471 41.82 114.302ZM42.52 119.132V106.448H44.27V119.132H42.52ZM44.648 111.908C44.5453 111.432 44.4333 110.947 44.312 110.452C44.2 109.948 44.0787 109.453 43.948 108.968L45.11 108.674C45.25 109.15 45.3807 109.645 45.502 110.158C45.6327 110.662 45.7493 111.152 45.852 111.628L44.648 111.908ZM44.97 111.992V110.732H48.484V110.186H45.488V109.01H48.484V108.45H45.11V107.134H48.484V106.252H50.402V107.134H53.65V108.45H50.402V109.01H53.272V110.186H50.402V110.732H53.93V111.992H44.97ZM61.408 119.076V106.728H67.988L67.96 107.456C67.9227 108.119 67.8807 108.641 67.834 109.024C67.7967 109.397 67.736 109.677 67.652 109.864C67.568 110.041 67.456 110.158 67.316 110.214C67.1853 110.261 67.0127 110.284 66.798 110.284C66.574 110.284 66.238 110.279 65.79 110.27C65.3513 110.251 64.8147 110.233 64.18 110.214L64.138 108.898C64.5393 108.917 64.9033 108.935 65.23 108.954C65.566 108.963 65.8087 108.968 65.958 108.968C66.014 108.968 66.056 108.963 66.084 108.954C66.112 108.945 66.1353 108.917 66.154 108.87C66.1727 108.823 66.1867 108.744 66.196 108.632C66.2147 108.52 66.2333 108.366 66.252 108.17H63.13V110.76H67.946V112.216H63.13V119.076H61.408ZM57.488 119.202V117.34H55.57V115.94H57.488V114.75H55.36V113.266H61.562V114.75H59.308V115.94H61.1V117.34H59.308V119.202H57.488ZM56.676 114.008C56.5827 113.467 56.4753 112.921 56.354 112.37C56.242 111.819 56.1207 111.283 55.99 110.76L57.404 110.396C57.5347 110.928 57.656 111.469 57.768 112.02C57.8893 112.561 57.9967 113.107 58.09 113.658L56.676 114.008ZM59.924 114.274L58.566 113.868C58.762 113.364 58.944 112.813 59.112 112.216C59.28 111.609 59.4293 110.993 59.56 110.368L61.016 110.662C60.876 111.306 60.7127 111.936 60.526 112.552C60.3487 113.168 60.148 113.742 59.924 114.274ZM55.29 111.166V109.668H57.488V108.59H55.668V107.19H57.488V106.238H59.308V107.19H61.058V108.59H59.308V109.668H61.562V111.166H55.29ZM67.736 119.104C67.0733 118.768 66.448 118.315 65.86 117.746C65.272 117.167 64.754 116.495 64.306 115.73C63.858 114.965 63.508 114.139 63.256 113.252L64.586 112.356C64.7727 113.084 65.0527 113.784 65.426 114.456C65.7993 115.119 66.2333 115.711 66.728 116.234C67.232 116.757 67.764 117.177 68.324 117.494L67.736 119.104ZM63.97 119.062L63.172 117.494C63.7693 117.093 64.2827 116.612 64.712 116.052C65.1507 115.492 65.51 114.862 65.79 114.162C66.07 113.453 66.2613 112.673 66.364 111.824L67.946 112.216C67.7967 113.205 67.5447 114.125 67.19 114.974C66.8353 115.823 66.3873 116.593 65.846 117.284C65.3047 117.965 64.6793 118.558 63.97 119.062ZM71.406 113.392L70.258 112.65C70.79 111.857 71.294 111.063 71.77 110.27C72.246 109.467 72.6987 108.637 73.128 107.778L74.416 108.38C73.9587 109.257 73.4827 110.107 72.988 110.928C72.5027 111.749 71.9753 112.571 71.406 113.392ZM70.342 118.474L69.166 118.264C69.278 117.62 69.3713 116.976 69.446 116.332C69.53 115.679 69.5907 115.025 69.628 114.372L70.804 114.47C70.7667 115.142 70.7107 115.814 70.636 116.486C70.5613 117.149 70.4633 117.811 70.342 118.474ZM71.07 119.132V113.266H72.75V119.132H71.07ZM73.198 116.976C73.1793 116.556 73.1467 116.131 73.1 115.702C73.0627 115.273 73.016 114.843 72.96 114.414L74.08 114.246C74.1453 114.675 74.1967 115.119 74.234 115.576C74.2807 116.024 74.3227 116.458 74.36 116.878L73.198 116.976ZM75.186 118.782L73.828 118.18C74.0427 117.704 74.234 117.158 74.402 116.542C74.5793 115.917 74.738 115.231 74.878 114.484L76.292 114.778C76.2267 115.263 76.1333 115.753 76.012 116.248C75.8907 116.733 75.76 117.195 75.62 117.634C75.4893 118.063 75.3447 118.446 75.186 118.782ZM69.348 113.84L69.292 112.356L73.982 112.076L73.996 113.504L69.348 113.84ZM71.098 112.062C70.93 111.801 70.734 111.516 70.51 111.208C70.2953 110.891 70.0713 110.573 69.838 110.256C69.614 109.929 69.404 109.631 69.208 109.36L69.964 107.82C70.2813 108.259 70.608 108.725 70.944 109.22C71.28 109.705 71.5693 110.144 71.812 110.536L71.098 112.062ZM73.87 114.036C73.8047 113.691 73.7253 113.317 73.632 112.916C73.5387 112.515 73.4407 112.118 73.338 111.726C73.2353 111.325 73.1327 110.961 73.03 110.634L74.22 110.326C74.3133 110.671 74.4113 111.045 74.514 111.446C74.6167 111.847 74.7147 112.253 74.808 112.664C74.9107 113.065 74.9947 113.439 75.06 113.784L73.87 114.036ZM78.476 119.062C78.3173 119.062 78.1353 119.057 77.93 119.048C77.734 119.048 77.5613 119.043 77.412 119.034C77.0947 119.015 76.8567 118.973 76.698 118.908C76.5487 118.852 76.446 118.74 76.39 118.572C76.3433 118.404 76.32 118.147 76.32 117.802V114.092H78.098V117.102C78.098 117.251 78.1027 117.359 78.112 117.424C78.1213 117.48 78.14 117.517 78.168 117.536C78.196 117.545 78.252 117.555 78.336 117.564C78.3733 117.573 78.4153 117.578 78.462 117.578C78.5087 117.578 78.56 117.578 78.616 117.578C78.6813 117.578 78.7327 117.578 78.77 117.578C78.8167 117.578 78.8633 117.573 78.91 117.564C78.9753 117.555 79.0267 117.536 79.064 117.508C79.1013 117.48 79.134 117.415 79.162 117.312C79.19 117.209 79.2133 117.051 79.232 116.836C79.26 116.621 79.2833 116.323 79.302 115.94L80.744 116.15C80.7253 116.813 80.6927 117.335 80.646 117.718C80.5993 118.091 80.5293 118.367 80.436 118.544C80.352 118.721 80.2353 118.843 80.086 118.908C79.946 118.973 79.7593 119.015 79.526 119.034C79.3767 119.043 79.2087 119.048 79.022 119.048C78.8447 119.057 78.6627 119.062 78.476 119.062ZM71.252 110.032L70.118 109.248C70.3793 108.763 70.6127 108.277 70.818 107.792C71.0327 107.297 71.2333 106.793 71.42 106.28L72.792 106.784C72.5587 107.335 72.3113 107.881 72.05 108.422C71.798 108.963 71.532 109.5 71.252 110.032ZM79.008 115.436C78.6067 115.044 78.2007 114.694 77.79 114.386C77.3887 114.069 76.9733 113.779 76.544 113.518L77.426 112.426C77.8647 112.697 78.2893 112.986 78.7 113.294C79.12 113.602 79.5353 113.952 79.946 114.344L79.008 115.436ZM81.15 118.544C80.9727 117.844 80.7767 117.177 80.562 116.542C80.3473 115.898 80.1233 115.301 79.89 114.75L81.374 114.232C81.6167 114.829 81.8453 115.445 82.06 116.08C82.2747 116.705 82.466 117.359 82.634 118.04L81.15 118.544ZM75.06 113.014L74.962 111.586C75.9513 111.549 76.978 111.493 78.042 111.418C79.106 111.343 80.1793 111.255 81.262 111.152L81.458 112.51C80.338 112.641 79.2413 112.748 78.168 112.832C77.0947 112.916 76.0587 112.977 75.06 113.014ZM77.454 112.818L75.76 112.468C75.9933 111.908 76.222 111.297 76.446 110.634C76.6793 109.971 76.8893 109.299 77.076 108.618L78.84 108.814C78.644 109.533 78.4247 110.233 78.182 110.914C77.9487 111.595 77.706 112.23 77.454 112.818ZM75.368 110.326L74.052 109.22C74.528 108.819 74.962 108.385 75.354 107.918C75.7553 107.451 76.11 106.952 76.418 106.42L77.944 106.98C77.6453 107.577 77.2767 108.165 76.838 108.744C76.3993 109.313 75.9093 109.841 75.368 110.326ZM80.8 113.812C80.6693 113.457 80.5153 113.075 80.338 112.664C80.17 112.253 79.9973 111.847 79.82 111.446C79.6427 111.035 79.4747 110.653 79.316 110.298L80.842 109.724C81.01 110.079 81.1827 110.466 81.36 110.886C81.5467 111.297 81.7287 111.707 81.906 112.118C82.0833 112.519 82.242 112.897 82.382 113.252L80.8 113.812ZM81.22 110.326C80.6787 109.841 80.1887 109.313 79.75 108.744C79.3113 108.165 78.938 107.577 78.63 106.98L80.212 106.42C80.5293 106.952 80.884 107.451 81.276 107.918C81.668 108.385 82.102 108.819 82.578 109.22L81.22 110.326ZM84.218 111.894L83.49 110.368C84.2087 109.976 84.8667 109.584 85.464 109.192C86.0707 108.8 86.6447 108.38 87.186 107.932C87.7367 107.484 88.2827 106.989 88.824 106.448H91.176C91.7267 106.989 92.2727 107.484 92.814 107.932C93.3553 108.38 93.9247 108.8 94.522 109.192C95.1287 109.584 95.7913 109.976 96.51 110.368L95.782 111.894C94.662 111.315 93.6307 110.681 92.688 109.99C91.7453 109.29 90.8493 108.506 90 107.638C89.1507 108.506 88.2547 109.29 87.312 109.99C86.3693 110.681 85.338 111.315 84.218 111.894ZM84.96 119.09V113.028H95.04V119.09H93.164V118.446H86.836V116.99H93.164V114.526H86.836V119.09H84.96ZM86.08 111.768V110.27H93.92V111.768H86.08ZM99.004 117.088C99.7507 116.883 100.367 116.649 100.852 116.388C101.337 116.117 101.72 115.781 102 115.38C102.28 114.979 102.476 114.479 102.588 113.882C102.709 113.275 102.77 112.538 102.77 111.67V109.99H104.632V111.67C104.632 112.706 104.543 113.611 104.366 114.386C104.189 115.161 103.909 115.823 103.526 116.374C103.143 116.925 102.649 117.382 102.042 117.746C101.435 118.11 100.703 118.404 99.844 118.628L99.004 117.088ZM98.486 109.192V107.554H110.246V109.192H98.486ZM105.136 112.916C106.069 112.468 106.793 111.913 107.306 111.25C107.819 110.587 108.146 109.803 108.286 108.898L110.246 109.192C110.097 109.985 109.835 110.718 109.462 111.39C109.089 112.062 108.622 112.659 108.062 113.182C107.511 113.695 106.886 114.111 106.186 114.428L105.136 112.916ZM113.048 116.71C114.952 116.635 116.529 116.29 117.78 115.674C119.031 115.058 119.964 114.167 120.58 113C121.205 111.824 121.518 110.368 121.518 108.632L122.442 109.612H112.418V107.834H122.442V108.66H123.422C123.422 110.732 123.039 112.487 122.274 113.924C121.518 115.352 120.393 116.449 118.9 117.214C117.407 117.97 115.563 118.381 113.37 118.446L113.048 116.71ZM123.268 109.878C122.904 109.878 122.568 109.789 122.26 109.612C121.952 109.425 121.705 109.183 121.518 108.884C121.341 108.576 121.252 108.24 121.252 107.876C121.252 107.493 121.341 107.153 121.518 106.854C121.705 106.555 121.947 106.317 122.246 106.14C122.554 105.953 122.89 105.86 123.254 105.86C123.637 105.86 123.977 105.953 124.276 106.14C124.575 106.317 124.813 106.555 124.99 106.854C125.177 107.153 125.27 107.489 125.27 107.862C125.27 108.226 125.177 108.562 124.99 108.87C124.813 109.178 124.575 109.425 124.276 109.612C123.977 109.789 123.641 109.878 123.268 109.878ZM123.268 108.59C123.473 108.59 123.641 108.52 123.772 108.38C123.912 108.231 123.982 108.058 123.982 107.862C123.982 107.657 123.912 107.489 123.772 107.358C123.641 107.218 123.473 107.148 123.268 107.148C123.072 107.148 122.899 107.218 122.75 107.358C122.61 107.489 122.54 107.657 122.54 107.862C122.54 108.058 122.61 108.231 122.75 108.38C122.899 108.52 123.072 108.59 123.268 108.59ZM128.422 116.794C129.738 116.766 130.844 116.649 131.74 116.444C132.645 116.239 133.369 115.926 133.91 115.506C134.451 115.086 134.839 114.535 135.072 113.854C135.305 113.173 135.422 112.333 135.422 111.334V107.008H137.438V111.292C137.438 112.561 137.275 113.649 136.948 114.554C136.621 115.459 136.108 116.201 135.408 116.78C134.708 117.359 133.803 117.788 132.692 118.068C131.581 118.348 130.237 118.502 128.66 118.53L128.422 116.794ZM127.638 113.49V107.008H129.64V113.49H127.638Z" fill="white"/>
</g>
<defs>
<filter id="filter0_d_1571_4191" x="0" y="-16" width="180" height="182" filterUnits="userSpaceOnUse" color-interpolation-filters="sRGB">
<feFlood flood-opacity="0" result="BackgroundImageFix"/>
<feColorMatrix in="SourceAlpha" type="matrix" values="0 0 0 0 0 0 0 0 0 0 0 0 0 0 0 0 0 0 127 0" result="hardAlpha"/>
<feOffset dy="4"/>
<feGaussianBlur stdDeviation="10"/>
<feColorMatrix type="matrix" values="0 0 0 0 0.101961 0 0 0 0 0.164706 0 0 0 0 0.380392 0 0 0 0.1 0"/>
<feBlend mode="normal" in2="BackgroundImageFix" result="effect1_dropShadow_1571_4191"/>
<feBlend mode="normal" in="SourceGraphic" in2="effect1_dropShadow_1571_4191" result="shape"/>
</filter>
</defs>
</svg>
