<svg width="122" height="121" viewBox="0 0 122 121" fill="none" xmlns="http://www.w3.org/2000/svg">
<path d="M0.475586 14.6475C0.475586 6.91548 6.7436 0.647461 14.4756 0.647461H107.385C115.117 0.647461 121.385 6.91547 121.385 14.6475V106.647C121.385 114.379 115.117 120.647 107.385 120.647H14.4756C6.7436 120.647 0.475586 114.379 0.475586 106.647V14.6475Z" fill="white"/>
<path d="M15.8159 13.4717H12.4741V16.7568H15.8159V13.4717Z" fill="#09101D"/>
<path d="M19.1577 13.4717H15.8159V16.7568H19.1577V13.4717Z" fill="#09101D"/>
<path d="M22.4995 13.4717H19.1577V16.7568H22.4995V13.4717Z" fill="#09101D"/>
<path d="M25.8413 13.4717H22.4995V16.7568H25.8413V13.4717Z" fill="#09101D"/>
<path d="M29.1831 13.4717H25.8413V16.7568H29.1831V13.4717Z" fill="#09101D"/>
<path d="M32.5249 13.4717H29.1831V16.7568H32.5249V13.4717Z" fill="#09101D"/>
<path d="M35.8666 13.4717H32.5249V16.7568H35.8666V13.4717Z" fill="#09101D"/>
<path d="M42.5502 13.4717H39.2084V16.7568H42.5502V13.4717Z" fill="#09101D"/>
<path d="M45.892 13.4717H42.5502V16.7568H45.892V13.4717Z" fill="#09101D"/>
<path d="M52.5756 13.4717H49.2338V16.7568H52.5756V13.4717Z" fill="#09101D"/>
<path d="M55.9174 13.4717H52.5756V16.7568H55.9174V13.4717Z" fill="#09101D"/>
<path d="M69.2845 13.4717H65.9427V16.7568H69.2845V13.4717Z" fill="#09101D"/>
<path d="M72.6263 13.4717H69.2845V16.7568H72.6263V13.4717Z" fill="#09101D"/>
<path d="M75.9681 13.4717H72.6263V16.7568H75.9681V13.4717Z" fill="#09101D"/>
<path d="M79.3099 13.4717H75.9681V16.7568H79.3099V13.4717Z" fill="#09101D"/>
<path d="M82.6517 13.4717H79.3099V16.7568H82.6517V13.4717Z" fill="#09101D"/>
<path d="M89.3352 13.4717H85.9935V16.7568H89.3352V13.4717Z" fill="#09101D"/>
<path d="M92.677 13.4717H89.3352V16.7568H92.677V13.4717Z" fill="#09101D"/>
<path d="M96.0188 13.4717H92.677V16.7568H96.0188V13.4717Z" fill="#09101D"/>
<path d="M99.3606 13.4717H96.0188V16.7568H99.3606V13.4717Z" fill="#09101D"/>
<path d="M102.702 13.4717H99.3606V16.7568H102.702V13.4717Z" fill="#09101D"/>
<path d="M106.044 13.4717H102.702V16.7568H106.044V13.4717Z" fill="#09101D"/>
<path d="M109.386 13.4717H106.044V16.7568H109.386V13.4717Z" fill="#09101D"/>
<path d="M15.8159 16.7568H12.4741V20.0418H15.8159V16.7568Z" fill="#09101D"/>
<path d="M35.8666 16.7568H32.5249V20.0418H35.8666V16.7568Z" fill="#09101D"/>
<path d="M49.2338 16.7568H45.892V20.0418H49.2338V16.7568Z" fill="#09101D"/>
<path d="M55.9174 16.7568H52.5756V20.0418H55.9174V16.7568Z" fill="#09101D"/>
<path d="M59.2592 16.7568H55.9174V20.0418H59.2592V16.7568Z" fill="#09101D"/>
<path d="M75.9681 16.7568H72.6263V20.0418H75.9681V16.7568Z" fill="#09101D"/>
<path d="M79.3099 16.7568H75.9681V20.0418H79.3099V16.7568Z" fill="#09101D"/>
<path d="M82.6517 16.7568H79.3099V20.0418H82.6517V16.7568Z" fill="#09101D"/>
<path d="M89.3352 16.7568H85.9935V20.0418H89.3352V16.7568Z" fill="#09101D"/>
<path d="M109.386 16.7568H106.044V20.0418H109.386V16.7568Z" fill="#09101D"/>
<path d="M15.8159 20.0418H12.4741V23.3269H15.8159V20.0418Z" fill="#09101D"/>
<path d="M22.4995 20.0418H19.1577V23.3269H22.4995V20.0418Z" fill="#09101D"/>
<path d="M25.8413 20.0418H22.4995V23.3269H25.8413V20.0418Z" fill="#09101D"/>
<path d="M29.1831 20.0418H25.8413V23.3269H29.1831V20.0418Z" fill="#09101D"/>
<path d="M35.8666 20.0418H32.5249V23.3269H35.8666V20.0418Z" fill="#09101D"/>
<path d="M45.892 20.0418H42.5502V23.3269H45.892V20.0418Z" fill="#09101D"/>
<path d="M49.2338 20.0418H45.892V23.3269H49.2338V20.0418Z" fill="#09101D"/>
<path d="M59.2592 20.0418H55.9174V23.3269H59.2592V20.0418Z" fill="#09101D"/>
<path d="M62.6009 20.0418H59.2592V23.3269H62.6009V20.0418Z" fill="#09101D"/>
<path d="M65.9427 20.0418H62.6009V23.3269H65.9427V20.0418Z" fill="#09101D"/>
<path d="M72.6263 20.0418H69.2845V23.3269H72.6263V20.0418Z" fill="#09101D"/>
<path d="M79.3099 20.0418H75.9681V23.3269H79.3099V20.0418Z" fill="#09101D"/>
<path d="M82.6517 20.0418H79.3099V23.3269H82.6517V20.0418Z" fill="#09101D"/>
<path d="M89.3352 20.0418H85.9935V23.3269H89.3352V20.0418Z" fill="#09101D"/>
<path d="M96.0188 20.0418H92.677V23.3269H96.0188V20.0418Z" fill="#09101D"/>
<path d="M99.3606 20.0418H96.0188V23.3269H99.3606V20.0418Z" fill="#09101D"/>
<path d="M102.702 20.0418H99.3606V23.3269H102.702V20.0418Z" fill="#09101D"/>
<path d="M109.386 20.0418H106.044V23.3269H109.386V20.0418Z" fill="#09101D"/>
<path d="M15.8159 23.3269H12.4741V26.612H15.8159V23.3269Z" fill="#09101D"/>
<path d="M22.4995 23.3269H19.1577V26.612H22.4995V23.3269Z" fill="#09101D"/>
<path d="M25.8413 23.3269H22.4995V26.612H25.8413V23.3269Z" fill="#09101D"/>
<path d="M29.1831 23.3269H25.8413V26.612H29.1831V23.3269Z" fill="#09101D"/>
<path d="M35.8666 23.3269H32.5249V26.612H35.8666V23.3269Z" fill="#09101D"/>
<path d="M42.5502 23.3269H39.2084V26.612H42.5502V23.3269Z" fill="#09101D"/>
<path d="M45.892 23.3269H42.5502V26.612H45.892V23.3269Z" fill="#09101D"/>
<path d="M69.2845 23.3269H65.9427V26.612H69.2845V23.3269Z" fill="#09101D"/>
<path d="M82.6517 23.3269H79.3099V26.612H82.6517V23.3269Z" fill="#09101D"/>
<path d="M89.3352 23.3269H85.9935V26.612H89.3352V23.3269Z" fill="#09101D"/>
<path d="M96.0188 23.3269H92.677V26.612H96.0188V23.3269Z" fill="#09101D"/>
<path d="M99.3606 23.3269H96.0188V26.612H99.3606V23.3269Z" fill="#09101D"/>
<path d="M102.702 23.3269H99.3606V26.612H102.702V23.3269Z" fill="#09101D"/>
<path d="M109.386 23.3269H106.044V26.612H109.386V23.3269Z" fill="#09101D"/>
<path d="M15.8159 26.612H12.4741V29.8971H15.8159V26.612Z" fill="#09101D"/>
<path d="M22.4995 26.612H19.1577V29.8971H22.4995V26.612Z" fill="#09101D"/>
<path d="M25.8413 26.612H22.4995V29.8971H25.8413V26.612Z" fill="#09101D"/>
<path d="M29.1831 26.612H25.8413V29.8971H29.1831V26.612Z" fill="#09101D"/>
<path d="M35.8666 26.612H32.5249V29.8971H35.8666V26.612Z" fill="#09101D"/>
<path d="M42.5502 26.612H39.2084V29.8971H42.5502V26.612Z" fill="#09101D"/>
<path d="M45.892 26.612H42.5502V29.8971H45.892V26.612Z" fill="#09101D"/>
<path d="M52.5756 26.612H49.2338V29.8971H52.5756V26.612Z" fill="#09101D"/>
<path d="M55.9174 26.612H52.5756V29.8971H55.9174V26.612Z" fill="#09101D"/>
<path d="M59.2592 26.612H55.9174V29.8971H59.2592V26.612Z" fill="#09101D"/>
<path d="M62.6009 26.612H59.2592V29.8971H62.6009V26.612Z" fill="#09101D"/>
<path d="M65.9427 26.612H62.6009V29.8971H65.9427V26.612Z" fill="#09101D"/>
<path d="M69.2845 26.612H65.9427V29.8971H69.2845V26.612Z" fill="#09101D"/>
<path d="M72.6263 26.612H69.2845V29.8971H72.6263V26.612Z" fill="#09101D"/>
<path d="M75.9681 26.612H72.6263V29.8971H75.9681V26.612Z" fill="#09101D"/>
<path d="M79.3099 26.612H75.9681V29.8971H79.3099V26.612Z" fill="#09101D"/>
<path d="M82.6517 26.612H79.3099V29.8971H82.6517V26.612Z" fill="#09101D"/>
<path d="M89.3352 26.612H85.9935V29.8971H89.3352V26.612Z" fill="#09101D"/>
<path d="M96.0188 26.612H92.677V29.8971H96.0188V26.612Z" fill="#09101D"/>
<path d="M99.3606 26.612H96.0188V29.8971H99.3606V26.612Z" fill="#09101D"/>
<path d="M102.702 26.612H99.3606V29.8971H102.702V26.612Z" fill="#09101D"/>
<path d="M109.386 26.612H106.044V29.8971H109.386V26.612Z" fill="#09101D"/>
<path d="M15.8159 29.8971H12.4741V33.1821H15.8159V29.8971Z" fill="#09101D"/>
<path d="M35.8666 29.8971H32.5249V33.1821H35.8666V29.8971Z" fill="#09101D"/>
<path d="M42.5502 29.8971H39.2084V33.1821H42.5502V29.8971Z" fill="#09101D"/>
<path d="M45.892 29.8971H42.5502V33.1821H45.892V29.8971Z" fill="#09101D"/>
<path d="M49.2338 29.8971H45.892V33.1821H49.2338V29.8971Z" fill="#09101D"/>
<path d="M55.9174 29.8971H52.5756V33.1821H55.9174V29.8971Z" fill="#09101D"/>
<path d="M59.2592 29.8971H55.9174V33.1821H59.2592V29.8971Z" fill="#09101D"/>
<path d="M69.2845 29.8971H65.9427V33.1821H69.2845V29.8971Z" fill="#09101D"/>
<path d="M72.6263 29.8971H69.2845V33.1821H72.6263V29.8971Z" fill="#09101D"/>
<path d="M75.9681 29.8971H72.6263V33.1821H75.9681V29.8971Z" fill="#09101D"/>
<path d="M79.3099 29.8971H75.9681V33.1821H79.3099V29.8971Z" fill="#09101D"/>
<path d="M82.6517 29.8971H79.3099V33.1821H82.6517V29.8971Z" fill="#09101D"/>
<path d="M89.3352 29.8971H85.9935V33.1821H89.3352V29.8971Z" fill="#09101D"/>
<path d="M109.386 29.8971H106.044V33.1821H109.386V29.8971Z" fill="#09101D"/>
<path d="M15.8159 33.1821H12.4741V36.4672H15.8159V33.1821Z" fill="#09101D"/>
<path d="M19.1577 33.1821H15.8159V36.4672H19.1577V33.1821Z" fill="#09101D"/>
<path d="M22.4995 33.1821H19.1577V36.4672H22.4995V33.1821Z" fill="#09101D"/>
<path d="M25.8413 33.1821H22.4995V36.4672H25.8413V33.1821Z" fill="#09101D"/>
<path d="M29.1831 33.1821H25.8413V36.4672H29.1831V33.1821Z" fill="#09101D"/>
<path d="M32.5249 33.1821H29.1831V36.4672H32.5249V33.1821Z" fill="#09101D"/>
<path d="M35.8666 33.1821H32.5249V36.4672H35.8666V33.1821Z" fill="#09101D"/>
<path d="M42.5502 33.1821H39.2084V36.4672H42.5502V33.1821Z" fill="#09101D"/>
<path d="M49.2338 33.1821H45.892V36.4672H49.2338V33.1821Z" fill="#09101D"/>
<path d="M55.9174 33.1821H52.5756V36.4672H55.9174V33.1821Z" fill="#09101D"/>
<path d="M62.6009 33.1821H59.2592V36.4672H62.6009V33.1821Z" fill="#09101D"/>
<path d="M69.2845 33.1821H65.9427V36.4672H69.2845V33.1821Z" fill="#09101D"/>
<path d="M75.9681 33.1821H72.6263V36.4672H75.9681V33.1821Z" fill="#09101D"/>
<path d="M82.6517 33.1821H79.3099V36.4672H82.6517V33.1821Z" fill="#09101D"/>
<path d="M89.3352 33.1821H85.9935V36.4672H89.3352V33.1821Z" fill="#09101D"/>
<path d="M92.677 33.1821H89.3352V36.4672H92.677V33.1821Z" fill="#09101D"/>
<path d="M96.0188 33.1821H92.677V36.4672H96.0188V33.1821Z" fill="#09101D"/>
<path d="M99.3606 33.1821H96.0188V36.4672H99.3606V33.1821Z" fill="#09101D"/>
<path d="M102.702 33.1821H99.3606V36.4672H102.702V33.1821Z" fill="#09101D"/>
<path d="M106.044 33.1821H102.702V36.4672H106.044V33.1821Z" fill="#09101D"/>
<path d="M109.386 33.1821H106.044V36.4672H109.386V33.1821Z" fill="#09101D"/>
<path d="M42.5502 36.4672H39.2084V39.7523H42.5502V36.4672Z" fill="#09101D"/>
<path d="M59.2592 36.4672H55.9174V39.7523H59.2592V36.4672Z" fill="#09101D"/>
<path d="M62.6009 36.4672H59.2592V39.7523H62.6009V36.4672Z" fill="#09101D"/>
<path d="M65.9427 36.4672H62.6009V39.7523H65.9427V36.4672Z" fill="#09101D"/>
<path d="M79.3099 36.4672H75.9681V39.7523H79.3099V36.4672Z" fill="#09101D"/>
<path d="M15.8159 39.7523H12.4741V43.0374H15.8159V39.7523Z" fill="#09101D"/>
<path d="M19.1577 39.7523H15.8159V43.0374H19.1577V39.7523Z" fill="#09101D"/>
<path d="M22.4995 39.7523H19.1577V43.0374H22.4995V39.7523Z" fill="#09101D"/>
<path d="M29.1831 39.7523H25.8413V43.0374H29.1831V39.7523Z" fill="#09101D"/>
<path d="M35.8666 39.7523H32.5249V43.0374H35.8666V39.7523Z" fill="#09101D"/>
<path d="M42.5502 39.7523H39.2084V43.0374H42.5502V39.7523Z" fill="#09101D"/>
<path d="M45.892 39.7523H42.5502V43.0374H45.892V39.7523Z" fill="#09101D"/>
<path d="M55.9174 39.7523H52.5756V43.0374H55.9174V39.7523Z" fill="#09101D"/>
<path d="M69.2845 39.7523H65.9427V43.0374H69.2845V39.7523Z" fill="#09101D"/>
<path d="M79.3099 39.7523H75.9681V43.0374H79.3099V39.7523Z" fill="#09101D"/>
<path d="M85.9935 39.7523H82.6517V43.0374H85.9935V39.7523Z" fill="#09101D"/>
<path d="M89.3352 39.7523H85.9935V43.0374H89.3352V39.7523Z" fill="#09101D"/>
<path d="M92.677 39.7523H89.3352V43.0374H92.677V39.7523Z" fill="#09101D"/>
<path d="M96.0188 39.7523H92.677V43.0374H96.0188V39.7523Z" fill="#09101D"/>
<path d="M99.3606 39.7523H96.0188V43.0374H99.3606V39.7523Z" fill="#09101D"/>
<path d="M109.386 39.7523H106.044V43.0374H109.386V39.7523Z" fill="#09101D"/>
<path d="M15.8159 43.0374H12.4741V46.3224H15.8159V43.0374Z" fill="#09101D"/>
<path d="M19.1577 43.0374H15.8159V46.3224H19.1577V43.0374Z" fill="#09101D"/>
<path d="M39.2084 43.0374H35.8666V46.3224H39.2084V43.0374Z" fill="#09101D"/>
<path d="M49.2338 43.0374H45.892V46.3224H49.2338V43.0374Z" fill="#09101D"/>
<path d="M52.5756 43.0374H49.2338V46.3224H52.5756V43.0374Z" fill="#09101D"/>
<path d="M55.9174 43.0374H52.5756V46.3224H55.9174V43.0374Z" fill="#09101D"/>
<path d="M69.2845 43.0374H65.9427V46.3224H69.2845V43.0374Z" fill="#09101D"/>
<path d="M82.6517 43.0374H79.3099V46.3224H82.6517V43.0374Z" fill="#09101D"/>
<path d="M89.3352 43.0374H85.9935V46.3224H89.3352V43.0374Z" fill="#09101D"/>
<path d="M92.677 43.0374H89.3352V46.3224H92.677V43.0374Z" fill="#09101D"/>
<path d="M102.702 43.0374H99.3606V46.3224H102.702V43.0374Z" fill="#09101D"/>
<path d="M109.386 43.0374H106.044V46.3224H109.386V43.0374Z" fill="#09101D"/>
<path d="M19.1577 46.3224H15.8159V49.6075H19.1577V46.3224Z" fill="#09101D"/>
<path d="M22.4995 46.3224H19.1577V49.6075H22.4995V46.3224Z" fill="#09101D"/>
<path d="M29.1831 46.3224H25.8413V49.6075H29.1831V46.3224Z" fill="#09101D"/>
<path d="M35.8666 46.3224H32.5249V49.6075H35.8666V46.3224Z" fill="#09101D"/>
<path d="M39.2084 46.3224H35.8666V49.6075H39.2084V46.3224Z" fill="#09101D"/>
<path d="M42.5502 46.3224H39.2084V49.6075H42.5502V46.3224Z" fill="#09101D"/>
<path d="M52.5756 46.3224H49.2338V49.6075H52.5756V46.3224Z" fill="#09101D"/>
<path d="M59.2592 46.3224H55.9174V49.6075H59.2592V46.3224Z" fill="#09101D"/>
<path d="M89.3352 46.3224H85.9935V49.6075H89.3352V46.3224Z" fill="#09101D"/>
<path d="M99.3606 46.3224H96.0188V49.6075H99.3606V46.3224Z" fill="#09101D"/>
<path d="M102.702 46.3224H99.3606V49.6075H102.702V46.3224Z" fill="#09101D"/>
<path d="M109.386 46.3224H106.044V49.6075H109.386V46.3224Z" fill="#09101D"/>
<path d="M15.8159 49.6075H12.4741V52.8926H15.8159V49.6075Z" fill="#09101D"/>
<path d="M29.1831 49.6075H25.8413V52.8926H29.1831V49.6075Z" fill="#09101D"/>
<path d="M39.2084 49.6075H35.8666V52.8926H39.2084V49.6075Z" fill="#09101D"/>
<path d="M55.9174 49.6075H52.5756V52.8926H55.9174V49.6075Z" fill="#09101D"/>
<path d="M59.2592 49.6075H55.9174V52.8926H59.2592V49.6075Z" fill="#09101D"/>
<path d="M75.9681 49.6075H72.6263V52.8926H75.9681V49.6075Z" fill="#09101D"/>
<path d="M79.3099 49.6075H75.9681V52.8926H79.3099V49.6075Z" fill="#09101D"/>
<path d="M82.6517 49.6075H79.3099V52.8926H82.6517V49.6075Z" fill="#09101D"/>
<path d="M106.044 49.6075H102.702V52.8926H106.044V49.6075Z" fill="#09101D"/>
<path d="M109.386 49.6075H106.044V52.8926H109.386V49.6075Z" fill="#09101D"/>
<path d="M22.4995 52.8926H19.1577V56.1777H22.4995V52.8926Z" fill="#09101D"/>
<path d="M25.8413 52.8926H22.4995V56.1777H25.8413V52.8926Z" fill="#09101D"/>
<path d="M35.8666 52.8926H32.5249V56.1777H35.8666V52.8926Z" fill="#09101D"/>
<path d="M62.6009 52.8926H59.2592V56.1777H62.6009V52.8926Z" fill="#09101D"/>
<path d="M65.9427 52.8926H62.6009V56.1777H65.9427V52.8926Z" fill="#09101D"/>
<path d="M69.2845 52.8926H65.9427V56.1777H69.2845V52.8926Z" fill="#09101D"/>
<path d="M75.9681 52.8926H72.6263V56.1777H75.9681V52.8926Z" fill="#09101D"/>
<path d="M79.3099 52.8926H75.9681V56.1777H79.3099V52.8926Z" fill="#09101D"/>
<path d="M82.6517 52.8926H79.3099V56.1777H82.6517V52.8926Z" fill="#09101D"/>
<path d="M92.677 52.8926H89.3352V56.1777H92.677V52.8926Z" fill="#09101D"/>
<path d="M99.3606 52.8926H96.0188V56.1777H99.3606V52.8926Z" fill="#09101D"/>
<path d="M102.702 52.8926H99.3606V56.1777H102.702V52.8926Z" fill="#09101D"/>
<path d="M106.044 52.8926H102.702V56.1777H106.044V52.8926Z" fill="#09101D"/>
<path d="M15.8159 56.1777H12.4741V59.4627H15.8159V56.1777Z" fill="#09101D"/>
<path d="M19.1577 56.1777H15.8159V59.4627H19.1577V56.1777Z" fill="#09101D"/>
<path d="M22.4995 56.1777H19.1577V59.4627H22.4995V56.1777Z" fill="#09101D"/>
<path d="M29.1831 56.1777H25.8413V59.4627H29.1831V56.1777Z" fill="#09101D"/>
<path d="M32.5249 56.1777H29.1831V59.4627H32.5249V56.1777Z" fill="#09101D"/>
<path d="M42.5502 56.1777H39.2084V59.4627H42.5502V56.1777Z" fill="#09101D"/>
<path d="M55.9174 56.1777H52.5756V59.4627H55.9174V56.1777Z" fill="#09101D"/>
<path d="M65.9427 56.1777H62.6009V59.4627H65.9427V56.1777Z" fill="#09101D"/>
<path d="M75.9681 56.1777H72.6263V59.4627H75.9681V56.1777Z" fill="#09101D"/>
<path d="M79.3099 56.1777H75.9681V59.4627H79.3099V56.1777Z" fill="#09101D"/>
<path d="M82.6517 56.1777H79.3099V59.4627H82.6517V56.1777Z" fill="#09101D"/>
<path d="M85.9935 56.1777H82.6517V59.4627H85.9935V56.1777Z" fill="#09101D"/>
<path d="M89.3352 56.1777H85.9935V59.4627H89.3352V56.1777Z" fill="#09101D"/>
<path d="M92.677 56.1777H89.3352V59.4627H92.677V56.1777Z" fill="#09101D"/>
<path d="M96.0188 56.1777H92.677V59.4627H96.0188V56.1777Z" fill="#09101D"/>
<path d="M102.702 56.1777H99.3606V59.4627H102.702V56.1777Z" fill="#09101D"/>
<path d="M109.386 56.1777H106.044V59.4627H109.386V56.1777Z" fill="#09101D"/>
<path d="M15.8159 59.4627H12.4741V62.7478H15.8159V59.4627Z" fill="#09101D"/>
<path d="M19.1577 59.4627H15.8159V62.7478H19.1577V59.4627Z" fill="#09101D"/>
<path d="M22.4995 59.4627H19.1577V62.7478H22.4995V59.4627Z" fill="#09101D"/>
<path d="M25.8413 59.4627H22.4995V62.7478H25.8413V59.4627Z" fill="#09101D"/>
<path d="M32.5249 59.4627H29.1831V62.7478H32.5249V59.4627Z" fill="#09101D"/>
<path d="M35.8666 59.4627H32.5249V62.7478H35.8666V59.4627Z" fill="#09101D"/>
<path d="M39.2084 59.4627H35.8666V62.7478H39.2084V59.4627Z" fill="#09101D"/>
<path d="M42.5502 59.4627H39.2084V62.7478H42.5502V59.4627Z" fill="#09101D"/>
<path d="M45.892 59.4627H42.5502V62.7478H45.892V59.4627Z" fill="#09101D"/>
<path d="M49.2338 59.4627H45.892V62.7478H49.2338V59.4627Z" fill="#09101D"/>
<path d="M52.5756 59.4627H49.2338V62.7478H52.5756V59.4627Z" fill="#09101D"/>
<path d="M55.9174 59.4627H52.5756V62.7478H55.9174V59.4627Z" fill="#09101D"/>
<path d="M62.6009 59.4627H59.2592V62.7478H62.6009V59.4627Z" fill="#09101D"/>
<path d="M65.9427 59.4627H62.6009V62.7478H65.9427V59.4627Z" fill="#09101D"/>
<path d="M75.9681 59.4627H72.6263V62.7478H75.9681V59.4627Z" fill="#09101D"/>
<path d="M99.3606 59.4627H96.0188V62.7478H99.3606V59.4627Z" fill="#09101D"/>
<path d="M109.386 59.4627H106.044V62.7478H109.386V59.4627Z" fill="#09101D"/>
<path d="M15.8159 62.7478H12.4741V66.0329H15.8159V62.7478Z" fill="#09101D"/>
<path d="M19.1577 62.7478H15.8159V66.0329H19.1577V62.7478Z" fill="#09101D"/>
<path d="M25.8413 62.7478H22.4995V66.0329H25.8413V62.7478Z" fill="#09101D"/>
<path d="M29.1831 62.7478H25.8413V66.0329H29.1831V62.7478Z" fill="#09101D"/>
<path d="M42.5502 62.7478H39.2084V66.0329H42.5502V62.7478Z" fill="#09101D"/>
<path d="M52.5756 62.7478H49.2338V66.0329H52.5756V62.7478Z" fill="#09101D"/>
<path d="M62.6009 62.7478H59.2592V66.0329H62.6009V62.7478Z" fill="#09101D"/>
<path d="M69.2845 62.7478H65.9427V66.0329H69.2845V62.7478Z" fill="#09101D"/>
<path d="M79.3099 62.7478H75.9681V66.0329H79.3099V62.7478Z" fill="#09101D"/>
<path d="M89.3352 62.7478H85.9935V66.0329H89.3352V62.7478Z" fill="#09101D"/>
<path d="M99.3606 62.7478H96.0188V66.0329H99.3606V62.7478Z" fill="#09101D"/>
<path d="M102.702 62.7478H99.3606V66.0329H102.702V62.7478Z" fill="#09101D"/>
<path d="M109.386 62.7478H106.044V66.0329H109.386V62.7478Z" fill="#09101D"/>
<path d="M35.8666 66.0329H32.5249V69.318H35.8666V66.0329Z" fill="#09101D"/>
<path d="M42.5502 66.0329H39.2084V69.318H42.5502V66.0329Z" fill="#09101D"/>
<path d="M65.9427 66.0329H62.6009V69.318H65.9427V66.0329Z" fill="#09101D"/>
<path d="M75.9681 66.0329H72.6263V69.318H75.9681V66.0329Z" fill="#09101D"/>
<path d="M79.3099 66.0329H75.9681V69.318H79.3099V66.0329Z" fill="#09101D"/>
<path d="M82.6517 66.0329H79.3099V69.318H82.6517V66.0329Z" fill="#09101D"/>
<path d="M85.9935 66.0329H82.6517V69.318H85.9935V66.0329Z" fill="#09101D"/>
<path d="M92.677 66.0329H89.3352V69.318H92.677V66.0329Z" fill="#09101D"/>
<path d="M96.0188 66.0329H92.677V69.318H96.0188V66.0329Z" fill="#09101D"/>
<path d="M99.3606 66.0329H96.0188V69.318H99.3606V66.0329Z" fill="#09101D"/>
<path d="M102.702 66.0329H99.3606V69.318H102.702V66.0329Z" fill="#09101D"/>
<path d="M109.386 66.0329H106.044V69.318H109.386V66.0329Z" fill="#09101D"/>
<path d="M15.8159 69.318H12.4741V72.603H15.8159V69.318Z" fill="#09101D"/>
<path d="M25.8413 69.318H22.4995V72.603H25.8413V69.318Z" fill="#09101D"/>
<path d="M29.1831 69.318H25.8413V72.603H29.1831V69.318Z" fill="#09101D"/>
<path d="M32.5249 69.318H29.1831V72.603H32.5249V69.318Z" fill="#09101D"/>
<path d="M42.5502 69.318H39.2084V72.603H42.5502V69.318Z" fill="#09101D"/>
<path d="M45.892 69.318H42.5502V72.603H45.892V69.318Z" fill="#09101D"/>
<path d="M49.2338 69.318H45.892V72.603H49.2338V69.318Z" fill="#09101D"/>
<path d="M52.5756 69.318H49.2338V72.603H52.5756V69.318Z" fill="#09101D"/>
<path d="M69.2845 69.318H65.9427V72.603H69.2845V69.318Z" fill="#09101D"/>
<path d="M72.6263 69.318H69.2845V72.603H72.6263V69.318Z" fill="#09101D"/>
<path d="M82.6517 69.318H79.3099V72.603H82.6517V69.318Z" fill="#09101D"/>
<path d="M85.9935 69.318H82.6517V72.603H85.9935V69.318Z" fill="#09101D"/>
<path d="M89.3352 69.318H85.9935V72.603H89.3352V69.318Z" fill="#09101D"/>
<path d="M92.677 69.318H89.3352V72.603H92.677V69.318Z" fill="#09101D"/>
<path d="M99.3606 69.318H96.0188V72.603H99.3606V69.318Z" fill="#09101D"/>
<path d="M15.8159 72.603H12.4741V75.8881H15.8159V72.603Z" fill="#09101D"/>
<path d="M22.4995 72.603H19.1577V75.8881H22.4995V72.603Z" fill="#09101D"/>
<path d="M29.1831 72.603H25.8413V75.8881H29.1831V72.603Z" fill="#09101D"/>
<path d="M32.5249 72.603H29.1831V75.8881H32.5249V72.603Z" fill="#09101D"/>
<path d="M35.8666 72.603H32.5249V75.8881H35.8666V72.603Z" fill="#09101D"/>
<path d="M45.892 72.603H42.5502V75.8881H45.892V72.603Z" fill="#09101D"/>
<path d="M55.9174 72.603H52.5756V75.8881H55.9174V72.603Z" fill="#09101D"/>
<path d="M59.2592 72.603H55.9174V75.8881H59.2592V72.603Z" fill="#09101D"/>
<path d="M62.6009 72.603H59.2592V75.8881H62.6009V72.603Z" fill="#09101D"/>
<path d="M65.9427 72.603H62.6009V75.8881H65.9427V72.603Z" fill="#09101D"/>
<path d="M75.9681 72.603H72.6263V75.8881H75.9681V72.603Z" fill="#09101D"/>
<path d="M85.9935 72.603H82.6517V75.8881H85.9935V72.603Z" fill="#09101D"/>
<path d="M99.3606 72.603H96.0188V75.8881H99.3606V72.603Z" fill="#09101D"/>
<path d="M102.702 72.603H99.3606V75.8881H102.702V72.603Z" fill="#09101D"/>
<path d="M19.1577 75.8881H15.8159V79.1732H19.1577V75.8881Z" fill="#09101D"/>
<path d="M22.4995 75.8881H19.1577V79.1732H22.4995V75.8881Z" fill="#09101D"/>
<path d="M39.2084 75.8881H35.8666V79.1732H39.2084V75.8881Z" fill="#09101D"/>
<path d="M42.5502 75.8881H39.2084V79.1732H42.5502V75.8881Z" fill="#09101D"/>
<path d="M45.892 75.8881H42.5502V79.1732H45.892V75.8881Z" fill="#09101D"/>
<path d="M52.5756 75.8881H49.2338V79.1732H52.5756V75.8881Z" fill="#09101D"/>
<path d="M62.6009 75.8881H59.2592V79.1732H62.6009V75.8881Z" fill="#09101D"/>
<path d="M65.9427 75.8881H62.6009V79.1732H65.9427V75.8881Z" fill="#09101D"/>
<path d="M72.6263 75.8881H69.2845V79.1732H72.6263V75.8881Z" fill="#09101D"/>
<path d="M75.9681 75.8881H72.6263V79.1732H75.9681V75.8881Z" fill="#09101D"/>
<path d="M82.6517 75.8881H79.3099V79.1732H82.6517V75.8881Z" fill="#09101D"/>
<path d="M85.9935 75.8881H82.6517V79.1732H85.9935V75.8881Z" fill="#09101D"/>
<path d="M89.3352 75.8881H85.9935V79.1732H89.3352V75.8881Z" fill="#09101D"/>
<path d="M96.0188 75.8881H92.677V79.1732H96.0188V75.8881Z" fill="#09101D"/>
<path d="M99.3606 75.8881H96.0188V79.1732H99.3606V75.8881Z" fill="#09101D"/>
<path d="M102.702 75.8881H99.3606V79.1732H102.702V75.8881Z" fill="#09101D"/>
<path d="M106.044 75.8881H102.702V79.1732H106.044V75.8881Z" fill="#09101D"/>
<path d="M25.8413 79.1732H22.4995V82.4583H25.8413V79.1732Z" fill="#09101D"/>
<path d="M35.8666 79.1732H32.5249V82.4583H35.8666V79.1732Z" fill="#09101D"/>
<path d="M39.2084 79.1732H35.8666V82.4583H39.2084V79.1732Z" fill="#09101D"/>
<path d="M45.892 79.1732H42.5502V82.4583H45.892V79.1732Z" fill="#09101D"/>
<path d="M49.2338 79.1732H45.892V82.4583H49.2338V79.1732Z" fill="#09101D"/>
<path d="M59.2592 79.1732H55.9174V82.4583H59.2592V79.1732Z" fill="#09101D"/>
<path d="M65.9427 79.1732H62.6009V82.4583H65.9427V79.1732Z" fill="#09101D"/>
<path d="M75.9681 79.1732H72.6263V82.4583H75.9681V79.1732Z" fill="#09101D"/>
<path d="M79.3099 79.1732H75.9681V82.4583H79.3099V79.1732Z" fill="#09101D"/>
<path d="M82.6517 79.1732H79.3099V82.4583H82.6517V79.1732Z" fill="#09101D"/>
<path d="M85.9935 79.1732H82.6517V82.4583H85.9935V79.1732Z" fill="#09101D"/>
<path d="M89.3352 79.1732H85.9935V82.4583H89.3352V79.1732Z" fill="#09101D"/>
<path d="M92.677 79.1732H89.3352V82.4583H92.677V79.1732Z" fill="#09101D"/>
<path d="M96.0188 79.1732H92.677V82.4583H96.0188V79.1732Z" fill="#09101D"/>
<path d="M99.3606 79.1732H96.0188V82.4583H99.3606V79.1732Z" fill="#09101D"/>
<path d="M109.386 79.1732H106.044V82.4583H109.386V79.1732Z" fill="#09101D"/>
<path d="M42.5502 82.4583H39.2084V85.7433H42.5502V82.4583Z" fill="#09101D"/>
<path d="M45.892 82.4583H42.5502V85.7433H45.892V82.4583Z" fill="#09101D"/>
<path d="M49.2338 82.4583H45.892V85.7433H49.2338V82.4583Z" fill="#09101D"/>
<path d="M59.2592 82.4583H55.9174V85.7433H59.2592V82.4583Z" fill="#09101D"/>
<path d="M69.2845 82.4583H65.9427V85.7433H69.2845V82.4583Z" fill="#09101D"/>
<path d="M75.9681 82.4583H72.6263V85.7433H75.9681V82.4583Z" fill="#09101D"/>
<path d="M82.6517 82.4583H79.3099V85.7433H82.6517V82.4583Z" fill="#09101D"/>
<path d="M96.0188 82.4583H92.677V85.7433H96.0188V82.4583Z" fill="#09101D"/>
<path d="M109.386 82.4583H106.044V85.7433H109.386V82.4583Z" fill="#09101D"/>
<path d="M15.8159 85.7433H12.4741V89.0284H15.8159V85.7433Z" fill="#09101D"/>
<path d="M19.1577 85.7433H15.8159V89.0284H19.1577V85.7433Z" fill="#09101D"/>
<path d="M22.4995 85.7433H19.1577V89.0284H22.4995V85.7433Z" fill="#09101D"/>
<path d="M25.8413 85.7433H22.4995V89.0284H25.8413V85.7433Z" fill="#09101D"/>
<path d="M29.1831 85.7433H25.8413V89.0284H29.1831V85.7433Z" fill="#09101D"/>
<path d="M32.5249 85.7433H29.1831V89.0284H32.5249V85.7433Z" fill="#09101D"/>
<path d="M35.8666 85.7433H32.5249V89.0284H35.8666V85.7433Z" fill="#09101D"/>
<path d="M55.9174 85.7433H52.5756V89.0284H55.9174V85.7433Z" fill="#09101D"/>
<path d="M59.2592 85.7433H55.9174V89.0284H59.2592V85.7433Z" fill="#09101D"/>
<path d="M62.6009 85.7433H59.2592V89.0284H62.6009V85.7433Z" fill="#09101D"/>
<path d="M65.9427 85.7433H62.6009V89.0284H65.9427V85.7433Z" fill="#09101D"/>
<path d="M75.9681 85.7433H72.6263V89.0284H75.9681V85.7433Z" fill="#09101D"/>
<path d="M82.6517 85.7433H79.3099V89.0284H82.6517V85.7433Z" fill="#09101D"/>
<path d="M89.3352 85.7433H85.9935V89.0284H89.3352V85.7433Z" fill="#09101D"/>
<path d="M96.0188 85.7433H92.677V89.0284H96.0188V85.7433Z" fill="#09101D"/>
<path d="M106.044 85.7433H102.702V89.0284H106.044V85.7433Z" fill="#09101D"/>
<path d="M109.386 85.7433H106.044V89.0284H109.386V85.7433Z" fill="#09101D"/>
<path d="M15.8159 89.0284H12.4741V92.3135H15.8159V89.0284Z" fill="#09101D"/>
<path d="M35.8666 89.0284H32.5249V92.3135H35.8666V89.0284Z" fill="#09101D"/>
<path d="M45.892 89.0284H42.5502V92.3135H45.892V89.0284Z" fill="#09101D"/>
<path d="M55.9174 89.0284H52.5756V92.3135H55.9174V89.0284Z" fill="#09101D"/>
<path d="M59.2592 89.0284H55.9174V92.3135H59.2592V89.0284Z" fill="#09101D"/>
<path d="M62.6009 89.0284H59.2592V92.3135H62.6009V89.0284Z" fill="#09101D"/>
<path d="M69.2845 89.0284H65.9427V92.3135H69.2845V89.0284Z" fill="#09101D"/>
<path d="M75.9681 89.0284H72.6263V92.3135H75.9681V89.0284Z" fill="#09101D"/>
<path d="M79.3099 89.0284H75.9681V92.3135H79.3099V89.0284Z" fill="#09101D"/>
<path d="M82.6517 89.0284H79.3099V92.3135H82.6517V89.0284Z" fill="#09101D"/>
<path d="M96.0188 89.0284H92.677V92.3135H96.0188V89.0284Z" fill="#09101D"/>
<path d="M102.702 89.0284H99.3606V92.3135H102.702V89.0284Z" fill="#09101D"/>
<path d="M106.044 89.0284H102.702V92.3135H106.044V89.0284Z" fill="#09101D"/>
<path d="M15.8159 92.3135H12.4741V95.5986H15.8159V92.3135Z" fill="#09101D"/>
<path d="M22.4995 92.3135H19.1577V95.5986H22.4995V92.3135Z" fill="#09101D"/>
<path d="M25.8413 92.3135H22.4995V95.5986H25.8413V92.3135Z" fill="#09101D"/>
<path d="M29.1831 92.3135H25.8413V95.5986H29.1831V92.3135Z" fill="#09101D"/>
<path d="M35.8666 92.3135H32.5249V95.5986H35.8666V92.3135Z" fill="#09101D"/>
<path d="M42.5502 92.3135H39.2084V95.5986H42.5502V92.3135Z" fill="#09101D"/>
<path d="M45.892 92.3135H42.5502V95.5986H45.892V92.3135Z" fill="#09101D"/>
<path d="M49.2338 92.3135H45.892V95.5986H49.2338V92.3135Z" fill="#09101D"/>
<path d="M52.5756 92.3135H49.2338V95.5986H52.5756V92.3135Z" fill="#09101D"/>
<path d="M59.2592 92.3135H55.9174V95.5986H59.2592V92.3135Z" fill="#09101D"/>
<path d="M65.9427 92.3135H62.6009V95.5986H65.9427V92.3135Z" fill="#09101D"/>
<path d="M72.6263 92.3135H69.2845V95.5986H72.6263V92.3135Z" fill="#09101D"/>
<path d="M82.6517 92.3135H79.3099V95.5986H82.6517V92.3135Z" fill="#09101D"/>
<path d="M85.9935 92.3135H82.6517V95.5986H85.9935V92.3135Z" fill="#09101D"/>
<path d="M89.3352 92.3135H85.9935V95.5986H89.3352V92.3135Z" fill="#09101D"/>
<path d="M92.677 92.3135H89.3352V95.5986H92.677V92.3135Z" fill="#09101D"/>
<path d="M96.0188 92.3135H92.677V95.5986H96.0188V92.3135Z" fill="#09101D"/>
<path d="M102.702 92.3135H99.3606V95.5986H102.702V92.3135Z" fill="#09101D"/>
<path d="M15.8159 95.5986H12.4741V98.8836H15.8159V95.5986Z" fill="#09101D"/>
<path d="M22.4995 95.5986H19.1577V98.8836H22.4995V95.5986Z" fill="#09101D"/>
<path d="M25.8413 95.5986H22.4995V98.8836H25.8413V95.5986Z" fill="#09101D"/>
<path d="M29.1831 95.5986H25.8413V98.8836H29.1831V95.5986Z" fill="#09101D"/>
<path d="M35.8666 95.5986H32.5249V98.8836H35.8666V95.5986Z" fill="#09101D"/>
<path d="M45.892 95.5986H42.5502V98.8836H45.892V95.5986Z" fill="#09101D"/>
<path d="M52.5756 95.5986H49.2338V98.8836H52.5756V95.5986Z" fill="#09101D"/>
<path d="M55.9174 95.5986H52.5756V98.8836H55.9174V95.5986Z" fill="#09101D"/>
<path d="M59.2592 95.5986H55.9174V98.8836H59.2592V95.5986Z" fill="#09101D"/>
<path d="M65.9427 95.5986H62.6009V98.8836H65.9427V95.5986Z" fill="#09101D"/>
<path d="M69.2845 95.5986H65.9427V98.8836H69.2845V95.5986Z" fill="#09101D"/>
<path d="M72.6263 95.5986H69.2845V98.8836H72.6263V95.5986Z" fill="#09101D"/>
<path d="M79.3099 95.5986H75.9681V98.8836H79.3099V95.5986Z" fill="#09101D"/>
<path d="M82.6517 95.5986H79.3099V98.8836H82.6517V95.5986Z" fill="#09101D"/>
<path d="M92.677 95.5986H89.3352V98.8836H92.677V95.5986Z" fill="#09101D"/>
<path d="M96.0188 95.5986H92.677V98.8836H96.0188V95.5986Z" fill="#09101D"/>
<path d="M99.3606 95.5986H96.0188V98.8836H99.3606V95.5986Z" fill="#09101D"/>
<path d="M106.044 95.5986H102.702V98.8836H106.044V95.5986Z" fill="#09101D"/>
<path d="M15.8159 98.8836H12.4741V102.169H15.8159V98.8836Z" fill="#09101D"/>
<path d="M22.4995 98.8836H19.1577V102.169H22.4995V98.8836Z" fill="#09101D"/>
<path d="M25.8413 98.8836H22.4995V102.169H25.8413V98.8836Z" fill="#09101D"/>
<path d="M29.1831 98.8836H25.8413V102.169H29.1831V98.8836Z" fill="#09101D"/>
<path d="M35.8666 98.8836H32.5249V102.169H35.8666V98.8836Z" fill="#09101D"/>
<path d="M42.5502 98.8836H39.2084V102.169H42.5502V98.8836Z" fill="#09101D"/>
<path d="M45.892 98.8836H42.5502V102.169H45.892V98.8836Z" fill="#09101D"/>
<path d="M49.2338 98.8836H45.892V102.169H49.2338V98.8836Z" fill="#09101D"/>
<path d="M59.2592 98.8836H55.9174V102.169H59.2592V98.8836Z" fill="#09101D"/>
<path d="M65.9427 98.8836H62.6009V102.169H65.9427V98.8836Z" fill="#09101D"/>
<path d="M75.9681 98.8836H72.6263V102.169H75.9681V98.8836Z" fill="#09101D"/>
<path d="M79.3099 98.8836H75.9681V102.169H79.3099V98.8836Z" fill="#09101D"/>
<path d="M82.6517 98.8836H79.3099V102.169H82.6517V98.8836Z" fill="#09101D"/>
<path d="M85.9935 98.8836H82.6517V102.169H85.9935V98.8836Z" fill="#09101D"/>
<path d="M89.3352 98.8836H85.9935V102.169H89.3352V98.8836Z" fill="#09101D"/>
<path d="M96.0188 98.8836H92.677V102.169H96.0188V98.8836Z" fill="#09101D"/>
<path d="M99.3606 98.8836H96.0188V102.169H99.3606V98.8836Z" fill="#09101D"/>
<path d="M102.702 98.8836H99.3606V102.169H102.702V98.8836Z" fill="#09101D"/>
<path d="M106.044 98.8836H102.702V102.169H106.044V98.8836Z" fill="#09101D"/>
<path d="M15.8159 102.169H12.4741V105.454H15.8159V102.169Z" fill="#09101D"/>
<path d="M35.8666 102.169H32.5249V105.454H35.8666V102.169Z" fill="#09101D"/>
<path d="M42.5502 102.169H39.2084V105.454H42.5502V102.169Z" fill="#09101D"/>
<path d="M45.892 102.169H42.5502V105.454H45.892V102.169Z" fill="#09101D"/>
<path d="M52.5756 102.169H49.2338V105.454H52.5756V102.169Z" fill="#09101D"/>
<path d="M55.9174 102.169H52.5756V105.454H55.9174V102.169Z" fill="#09101D"/>
<path d="M59.2592 102.169H55.9174V105.454H59.2592V102.169Z" fill="#09101D"/>
<path d="M65.9427 102.169H62.6009V105.454H65.9427V102.169Z" fill="#09101D"/>
<path d="M69.2845 102.169H65.9427V105.454H69.2845V102.169Z" fill="#09101D"/>
<path d="M82.6517 102.169H79.3099V105.454H82.6517V102.169Z" fill="#09101D"/>
<path d="M92.677 102.169H89.3352V105.454H92.677V102.169Z" fill="#09101D"/>
<path d="M99.3606 102.169H96.0188V105.454H99.3606V102.169Z" fill="#09101D"/>
<path d="M102.702 102.169H99.3606V105.454H102.702V102.169Z" fill="#09101D"/>
<path d="M15.8159 105.454H12.4741V108.739H15.8159V105.454Z" fill="#09101D"/>
<path d="M19.1577 105.454H15.8159V108.739H19.1577V105.454Z" fill="#09101D"/>
<path d="M22.4995 105.454H19.1577V108.739H22.4995V105.454Z" fill="#09101D"/>
<path d="M25.8413 105.454H22.4995V108.739H25.8413V105.454Z" fill="#09101D"/>
<path d="M29.1831 105.454H25.8413V108.739H29.1831V105.454Z" fill="#09101D"/>
<path d="M32.5249 105.454H29.1831V108.739H32.5249V105.454Z" fill="#09101D"/>
<path d="M35.8666 105.454H32.5249V108.739H35.8666V105.454Z" fill="#09101D"/>
<path d="M42.5502 105.454H39.2084V108.739H42.5502V105.454Z" fill="#09101D"/>
<path d="M55.9174 105.454H52.5756V108.739H55.9174V105.454Z" fill="#09101D"/>
<path d="M59.2592 105.454H55.9174V108.739H59.2592V105.454Z" fill="#09101D"/>
<path d="M62.6009 105.454H59.2592V108.739H62.6009V105.454Z" fill="#09101D"/>
<path d="M65.9427 105.454H62.6009V108.739H65.9427V105.454Z" fill="#09101D"/>
<path d="M75.9681 105.454H72.6263V108.739H75.9681V105.454Z" fill="#09101D"/>
<path d="M79.3099 105.454H75.9681V108.739H79.3099V105.454Z" fill="#09101D"/>
<path d="M82.6517 105.454H79.3099V108.739H82.6517V105.454Z" fill="#09101D"/>
<path d="M85.9935 105.454H82.6517V108.739H85.9935V105.454Z" fill="#09101D"/>
<path d="M102.702 105.454H99.3606V108.739H102.702V105.454Z" fill="#09101D"/>
<path d="M106.044 105.454H102.702V108.739H106.044V105.454Z" fill="#09101D"/>
</svg>
