<svg width="32" height="32" viewBox="0 0 32 32" fill="none" xmlns="http://www.w3.org/2000/svg">
<path d="M16.7466 4.03666C16.7466 4.0027 16.7466 3.96873 16.7127 3.93477L15.9655 0.742188L15.2183 3.96873C15.2183 4.0027 15.2183 4.0027 15.2183 4.03666V4.07062C15.2183 4.10459 15.2183 4.13855 15.2183 4.17251C15.2183 4.61404 15.5579 4.95368 15.9994 4.95368C16.441 4.95368 16.7806 4.61404 16.7806 4.17251C16.7466 4.10459 16.7466 4.07062 16.7466 4.03666Z" fill="white"/>
<path d="M15.2178 27.9133C15.2178 27.9473 15.2178 27.9813 15.2518 28.0152L15.999 31.2418L16.7462 28.0152C16.7462 27.9813 16.7462 27.9813 16.7462 27.9473V27.9133C16.7462 27.8794 16.7462 27.8454 16.7462 27.8114C16.7462 27.3699 16.4065 27.0303 15.965 27.0303C15.5235 27.0303 15.1838 27.3699 15.1838 27.8114C15.1838 27.8114 15.2178 27.8454 15.2178 27.9133Z" fill="white"/>
<path d="M10.6689 5.25864C10.6349 5.22468 10.6349 5.19071 10.601 5.19071L8.35938 2.7793L9.31036 5.93791C9.31036 5.97188 9.31036 5.97188 9.34432 6.00584V6.03981C9.34432 6.07377 9.37828 6.10773 9.37828 6.1417C9.58207 6.5153 10.0576 6.65115 10.4312 6.41341C10.8048 6.20962 10.9406 5.73413 10.7029 5.36053C10.7368 5.32657 10.7029 5.29261 10.6689 5.25864Z" fill="white"/>
<path d="M21.2653 26.6891C21.2992 26.723 21.2992 26.757 21.3332 26.757L23.5748 29.1684L22.6238 26.0098C22.6238 25.9758 22.6238 25.9758 22.5899 25.9419V25.9079C22.5899 25.8739 22.5559 25.84 22.5559 25.806C22.3521 25.4324 21.8766 25.2965 21.503 25.5343C21.1294 25.7381 20.9936 26.2136 21.2313 26.5872C21.2313 26.6211 21.2653 26.6551 21.2653 26.6891Z" fill="white"/>
<path d="M6.04835 9.33651C6.01439 9.30254 5.98042 9.30254 5.94646 9.30254L2.78784 8.35156L5.19926 10.5932L5.23322 10.6271L5.26719 10.6611C5.30115 10.6951 5.33511 10.6951 5.36908 10.729C5.74268 10.9328 6.21817 10.8309 6.42195 10.4573C6.62573 10.0837 6.52384 9.60822 6.15024 9.40444C6.11628 9.37047 6.08231 9.37047 6.04835 9.33651Z" fill="white"/>
<path d="M25.9179 22.6163C25.9519 22.6502 25.9859 22.6502 26.0198 22.6502L29.1785 23.6012L26.767 21.3596L26.7331 21.3256L26.6991 21.2917C26.6651 21.2577 26.6312 21.2577 26.5972 21.2237C26.2236 20.986 25.7481 21.1219 25.5443 21.4955C25.3406 21.8691 25.4425 22.3445 25.8161 22.5483C25.85 22.5823 25.884 22.5823 25.9179 22.6163Z" fill="white"/>
<path d="M4.04472 15.2115C4.01075 15.2115 3.97679 15.2115 3.94283 15.2454L0.750244 15.9587L3.97679 16.7059C4.01075 16.7059 4.01075 16.7059 4.04472 16.7059H4.07868C4.11264 16.7059 4.14661 16.7059 4.18057 16.7059C4.6221 16.7059 4.96173 16.3662 4.96173 15.9247C4.96173 15.4832 4.6221 15.1436 4.18057 15.1436C4.11264 15.1775 4.07868 15.2115 4.04472 15.2115Z" fill="white"/>
<path d="M27.9214 16.7383C27.9553 16.7383 27.9893 16.7383 28.0233 16.7044L31.2498 15.9572L28.0233 15.21C27.9893 15.21 27.9893 15.21 27.9553 15.21H27.9214C27.8874 15.21 27.8535 15.21 27.8195 15.21C27.378 15.21 27.0383 15.5496 27.0383 15.9911C27.0383 16.4327 27.378 16.7723 27.8195 16.7723C27.8195 16.7383 27.8535 16.7383 27.9214 16.7383Z" fill="white"/>
<path d="M5.26719 21.256C5.23322 21.2899 5.19926 21.2899 5.19926 21.3239L2.78784 23.5995L5.94646 22.6485C5.98042 22.6485 5.98042 22.6485 6.01439 22.6145H6.04835C6.08231 22.6145 6.11628 22.5806 6.15024 22.5806C6.52384 22.3768 6.6597 21.9013 6.42195 21.5277C6.21817 21.1541 5.74268 21.0182 5.36908 21.256C5.33511 21.222 5.30115 21.256 5.26719 21.256Z" fill="white"/>
<path d="M26.6976 10.6611C26.7316 10.6271 26.7655 10.6271 26.7655 10.5932L29.1769 8.35156L26.0183 9.30254C25.9844 9.30254 25.9844 9.30254 25.9504 9.33651H25.9164C25.8825 9.33651 25.8485 9.37047 25.8145 9.37047C25.4409 9.57425 25.3051 10.0497 25.5428 10.4233C25.7466 10.7969 26.2221 10.9328 26.5957 10.6951C26.6297 10.729 26.6636 10.6951 26.6976 10.6611Z" fill="white"/>
<path d="M9.34432 25.9104C9.31036 25.9443 9.31036 25.9783 9.31036 26.0123L8.35938 29.1709L10.601 26.7595L10.6349 26.7255L10.6689 26.6915C10.7029 26.6576 10.7029 26.6236 10.7368 26.5897C10.9406 26.2161 10.8387 25.7406 10.4651 25.5368C10.0915 25.333 9.61603 25.4349 9.41225 25.8085C9.37828 25.8425 9.37828 25.8764 9.34432 25.9104Z" fill="white"/>
<path d="M22.6226 6.03981C22.6566 6.00584 22.6566 5.97188 22.6566 5.93791L23.6076 2.7793L21.366 5.19071L21.332 5.22468L21.2981 5.25864C21.2641 5.29261 21.2641 5.32657 21.2301 5.36053C21.0264 5.73413 21.1282 6.20962 21.5018 6.41341C21.8754 6.61719 22.3509 6.5153 22.5547 6.1417C22.5887 6.10773 22.5887 6.07377 22.6226 6.03981Z" fill="white"/>
<path d="M25.4071 16.468C25.3731 15.7888 25.3052 15.1435 25.1354 14.4642C24.8977 13.4453 24.4901 12.4603 23.9467 11.6112C23.2674 10.4904 22.3504 9.47153 21.2636 8.72433C20.6522 8.2828 20.0069 7.94317 19.3276 7.63749C18.6484 7.33182 17.8672 7.12804 17.0521 7.02615C16.3049 6.92426 15.4558 6.89029 14.6067 6.99219C14.2331 7.06011 13.7916 7.09408 13.384 7.22993C13.2481 7.26389 13.1123 7.29786 12.9764 7.33182C12.9085 7.36579 12.8406 7.36579 12.7726 7.39975L12.7047 7.43371C12.6368 7.46768 12.5689 7.46768 12.5009 7.50164C12.3651 7.5356 12.2292 7.60353 12.0934 7.63749C10.4971 8.2828 9.07061 9.4036 8.11962 10.7961C7.13468 12.1886 6.5573 13.9208 6.48937 15.6189C6.45541 17.2832 6.89693 18.9813 7.77999 20.3739C8.59512 21.6984 9.81781 22.7853 11.2103 23.4306C11.3122 23.4985 11.4481 23.5325 11.55 23.5664C11.6179 23.6004 11.6518 23.6004 11.7198 23.6344L11.7877 23.6683C11.8556 23.7023 11.8896 23.7023 11.9575 23.7363C12.0594 23.7702 12.1613 23.8042 12.2972 23.8381C12.6368 23.94 13.0104 24.008 13.35 24.0759C13.8255 24.1438 14.267 24.1778 14.6746 24.1778C14.9124 24.1778 15.1501 24.1778 15.3878 24.1438C16.6105 24.0419 17.7993 23.6344 18.8182 22.9551C19.6673 22.4117 20.4145 21.6984 20.9579 20.8493C21.3654 20.238 21.7051 19.5248 21.9089 18.8115C22.0447 18.336 22.1466 17.8945 22.1806 17.419C22.1806 17.2832 22.2145 17.1813 22.2145 17.1133C22.2145 17.0794 22.2145 17.0794 22.2145 17.0454V16.9435C22.2145 16.9435 22.2145 16.9435 22.2145 16.9096V16.8756V16.7397C22.2145 16.7397 22.2145 16.7058 22.2145 16.6718C22.2145 16.6039 22.2145 16.502 22.2145 16.3661C22.1806 15.9246 22.1126 15.4491 21.9768 14.9736C21.773 14.2604 21.5013 13.6151 21.1277 13.0037C20.6182 12.2565 19.9729 11.5773 19.2597 11.0678C18.8521 10.7961 18.4106 10.5584 17.9351 10.3885C17.4596 10.2187 16.9502 10.0829 16.4067 10.0149C15.8973 9.94702 15.3539 9.94702 14.7765 10.0489H14.7425C14.5048 10.0829 14.2331 10.1508 13.9614 10.2187C13.8595 10.2527 13.7916 10.2867 13.7236 10.2867C13.6897 10.2867 13.6557 10.3206 13.6217 10.3206L13.5538 10.3546C13.5198 10.3546 13.4859 10.3885 13.4519 10.3885C13.384 10.4225 13.2821 10.4565 13.2142 10.4904C12.1613 10.9659 11.2782 11.7131 10.6669 12.6641C9.9197 13.6491 9.58006 14.8038 9.61402 15.8907C9.61402 16.9775 9.95366 18.0304 10.565 18.8795C11.1084 19.6946 11.8896 20.3399 12.7726 20.6795C12.8406 20.7135 12.9085 20.7475 12.9764 20.7475C13.0104 20.7475 13.0104 20.7475 13.0444 20.7814L13.1462 20.8154C13.1802 20.8154 13.2142 20.8154 13.2142 20.8493C13.2821 20.8833 13.35 20.8833 13.418 20.9173C13.6217 20.9852 13.7916 20.9852 13.9614 21.0192H14.0633C14.267 21.0531 14.4708 21.0531 14.6406 21.0531C14.8784 21.0531 15.0822 21.0531 15.286 21.0192C15.9992 20.9173 16.7124 20.6456 17.3238 20.204C17.7993 19.8644 18.2068 19.4229 18.5125 18.9134C18.7502 18.5398 18.8861 18.1323 18.988 17.6907C19.0559 17.419 19.0899 17.1473 19.0899 16.8756C19.0899 16.8077 19.0899 16.7397 19.0899 16.6718V16.6039V16.5699V16.536V16.4341C19.0899 16.4001 19.0899 16.3322 19.0559 16.2303C19.022 15.9925 18.954 15.7208 18.8861 15.4831C18.7502 15.0755 18.5465 14.7359 18.3087 14.4302C18.003 14.0227 17.6294 13.717 17.1879 13.4792C16.6785 13.2075 16.135 13.0717 15.6256 13.0377C15.3199 13.0377 15.0142 13.0717 14.7765 13.1396L14.6406 13.1736C14.5727 13.2075 14.4708 13.2415 14.3689 13.2755C14.301 13.3094 14.267 13.3094 14.2331 13.3434L14.1652 13.3773L14.0972 13.4113C14.0633 13.4113 13.9953 13.4453 13.9614 13.4792C13.4859 13.7509 13.0783 14.1925 12.8406 14.668C12.6028 15.1435 12.5349 15.6869 12.6028 16.1963C12.6708 16.6718 12.9085 17.1133 13.2481 17.419C13.5538 17.7247 13.9274 17.8945 14.335 17.9624C14.4029 17.9624 14.5048 17.9964 14.5727 17.9964C14.8444 17.9964 15.0822 17.9285 15.3199 17.8266C15.6256 17.6568 15.8294 17.419 15.8973 17.2832V17.2492C16.1011 16.8756 16.3388 16.2982 16.169 15.9586C16.1011 15.8227 15.9992 15.7208 15.9652 15.6869C15.8973 15.6189 15.7614 15.551 15.6596 15.5171C15.5916 15.4831 15.5577 15.4831 15.4897 15.4831C15.1501 15.4831 14.8784 15.7548 14.8784 16.0944L14.8444 16.7058C14.8105 16.7397 14.8105 16.7737 14.7425 16.7737C14.7086 16.8077 14.6067 16.8416 14.4369 16.8077C14.301 16.7737 14.1312 16.7058 14.0293 16.6039C13.8934 16.468 13.7576 16.2303 13.7236 16.0265C13.6897 15.7548 13.7236 15.4491 13.8595 15.2114C13.9953 14.9397 14.2331 14.668 14.5388 14.4981L14.5727 14.4642C14.6067 14.4642 14.6067 14.4302 14.6406 14.4302C14.6746 14.4302 14.6746 14.3963 14.7086 14.3963L14.7765 14.3623C14.8105 14.3623 14.8784 14.3283 14.9124 14.3283C14.9463 14.3283 14.9463 14.3283 14.9803 14.2944C15.1501 14.2604 15.3199 14.2264 15.5237 14.2264C15.8633 14.2264 16.2369 14.3283 16.5426 14.4981C16.8143 14.668 17.086 14.8717 17.2898 15.1435C17.4596 15.3472 17.5615 15.585 17.6634 15.8567C17.7313 16.0265 17.7653 16.1963 17.7993 16.3661V16.468C17.7993 16.502 17.7993 16.5699 17.7993 16.5699V16.6039C17.7993 16.6379 17.7993 16.6718 17.7993 16.7397V16.7737V16.8077V16.8416C17.7993 17.0115 17.7653 17.2152 17.7313 17.419C17.6634 17.7587 17.5615 18.0304 17.3917 18.3021C17.154 18.6757 16.8822 19.0153 16.5086 19.2531C16.203 19.4908 15.6935 19.7625 14.9803 19.8644C14.7086 19.8984 14.4029 19.8984 14.0633 19.8644H13.9953C13.8595 19.8304 13.7236 19.8304 13.5878 19.7965H13.5198C13.4859 19.7965 13.4519 19.7965 13.4519 19.7625C13.418 19.7625 13.384 19.7285 13.35 19.7285C13.3161 19.7285 13.2821 19.6946 13.2142 19.6946C13.1802 19.6946 13.1462 19.6946 13.1462 19.6606L13.1123 19.6267C12.433 19.3549 11.8217 18.8455 11.3801 18.2341C10.9046 17.5549 10.6669 16.7397 10.6329 15.8907C10.6329 15.0076 10.9046 14.1245 11.3801 13.3773C11.8896 12.6301 12.6028 12.0188 13.4519 11.6452L13.4859 11.6112C13.5198 11.5773 13.5878 11.5773 13.6217 11.5433C13.6557 11.5093 13.7236 11.5093 13.7576 11.4754C13.7916 11.4754 13.8595 11.4414 13.8934 11.4414C13.9274 11.4075 13.9953 11.4075 14.0293 11.4075H14.0633C14.267 11.3395 14.4708 11.3056 14.7086 11.2716C15.218 11.2037 15.6256 11.2037 16.0332 11.2376C16.5086 11.3056 16.9162 11.4075 17.2898 11.5433C17.6974 11.6792 18.037 11.8829 18.4106 12.1207C19.022 12.5283 19.5654 13.0717 19.9729 13.717C20.2786 14.1925 20.5164 14.7359 20.6862 15.3472C20.7881 15.7208 20.856 16.1284 20.856 16.502V16.536C20.856 16.6039 20.856 16.6718 20.856 16.7058C20.856 16.7397 20.856 16.8077 20.856 16.8077V16.9096V17.0115C20.856 17.0454 20.856 17.0794 20.856 17.1473C20.856 17.1813 20.856 17.2492 20.856 17.3171V17.3511C20.822 17.7587 20.7541 18.1323 20.6522 18.5398C20.4824 19.1512 20.2107 19.7285 19.8371 20.272C19.3616 20.9852 18.7502 21.5965 18.037 22.0381C17.4257 22.4456 16.4407 22.9211 15.1161 23.057C14.5727 23.1249 13.9953 23.0909 13.384 22.9891C13.0783 22.9211 12.7726 22.8872 12.5009 22.7853H12.467C12.399 22.7513 12.2972 22.7173 12.2292 22.7173C12.1613 22.6834 12.1273 22.6834 12.0594 22.6494C11.9915 22.6155 11.9575 22.6155 11.8896 22.5815C11.7877 22.5475 11.7198 22.5136 11.6518 22.4796H11.6179C10.4292 21.9362 9.37628 20.9852 8.66304 19.8644C7.91584 18.6757 7.50828 17.2152 7.54224 15.7548C7.57621 14.2604 8.08566 12.8 8.93475 11.5773C9.78384 10.3546 11.0405 9.36964 12.433 8.82622H12.467C12.5689 8.79226 12.6708 8.75829 12.7726 8.72433C12.8406 8.69037 12.9085 8.69037 12.9764 8.6564C13.0444 8.62244 13.1123 8.62244 13.1802 8.58848C13.2821 8.55451 13.384 8.52055 13.4859 8.48658H13.5198C13.8595 8.38469 14.2331 8.35073 14.5727 8.2828C15.3199 8.21488 16.0671 8.21488 16.7124 8.31677C17.4257 8.41866 18.1049 8.62244 18.7163 8.86018C19.3276 9.09793 19.905 9.43757 20.4145 9.81117C21.3315 10.4904 22.1466 11.3735 22.758 12.3584C23.2334 13.1396 23.5731 13.9887 23.8108 14.8717C23.9467 15.4491 24.0486 16.0265 24.0486 16.6718C24.0486 16.8077 24.0486 16.9096 24.0486 17.0115C24.0486 17.0794 24.0486 17.1133 24.0486 17.1473V17.3171V17.4869C24.0486 17.5209 24.0486 17.5888 24.0486 17.6228C24.0486 17.7247 24.0486 17.8266 24.0146 17.9624C23.9467 18.5738 23.8448 19.1512 23.641 19.7285C23.3353 20.6456 22.9278 21.5286 22.3843 22.2758C22.1806 22.5475 22.2485 22.9211 22.5202 23.0909C22.6221 23.1589 22.7579 23.1928 22.8598 23.1928C23.0297 23.1928 23.2334 23.0909 23.3353 22.9551C23.9467 22.072 24.4561 21.1211 24.7618 20.0682C24.9656 19.3889 25.1014 18.7436 25.1694 18.0643C25.2033 17.8945 25.2033 17.7247 25.2033 17.6228C25.2033 17.5888 25.2033 17.5549 25.2033 17.5209V17.3511C25.2033 17.3511 25.2033 17.3511 25.2033 17.3171V17.2832V17.0794C25.2033 17.0454 25.2033 17.0115 25.2033 16.9775C25.4071 16.7737 25.4071 16.6379 25.4071 16.468Z" fill="white"/>
</svg>
